<?xml version="1.0" standalone="no"?>
<!DOCTYPE svg PUBLIC "-//W3C//DTD SVG 1.1//EN" "http://www.w3.org/Graphics/SVG/1.1/DTD/svg11.dtd" >
<svg xmlns="http://www.w3.org/2000/svg" xmlns:xlink="http://www.w3.org/1999/xlink" version="1.1">
<metadata></metadata>
<defs>
<font id="berthold_akzidenz_grotesk_bRg" horiz-adv-x="646" >
<font-face units-per-em="1000" ascent="800" descent="-200" />
<missing-glyph horiz-adv-x="313" />
<glyph unicode="&#xd;" horiz-adv-x="313" />
<glyph unicode=" "  horiz-adv-x="313" />
<glyph unicode="&#x09;" horiz-adv-x="313" />
<glyph unicode="&#xa0;" horiz-adv-x="313" />
<glyph unicode="!" horiz-adv-x="292" d="M75 706h182v-191l-39 -257h-101l-42 259v189zM257 188v-188h-182v188h182z" />
<glyph unicode="&#x22;" horiz-adv-x="396" d="M319 408h-31l-55 250q-1 6 -1.5 12t-0.5 13q0 29 21.5 47.5t53.5 18.5q27 0 47 -16.5t20 -45.5v-9t-1 -8zM111 408h-32l-54 250q-1 6 -1.5 12t-0.5 12q0 18 7 30.5t18 20.5t24 12t26 4q28 0 47.5 -16.5t19.5 -45.5q0 -5 -0.5 -9t-0.5 -8z" />
<glyph unicode="#" horiz-adv-x="667" d="M459 0h-126l27 186h-99l-26 -186h-124l25 186h-94v123h112l13 96h-100v124h117l25 176h124l-25 -176h100l24 176h125l-24 -176h91v-124h-109l-12 -96h98v-123h-116zM377 309l14 96h-100l-13 -96h99z" />
<glyph unicode="$" horiz-adv-x="667" d="M293 763h95v-68q39 -5 68 -11t53 -15t46.5 -21t50.5 -30l-103 -122q-18 13 -31 21.5t-25.5 13.5t-26 8t-32.5 5v-112q32 -4 65.5 -11t76.5 -29q11 -6 31 -18t39 -33t33 -51.5t14 -73.5q0 -40 -15 -80t-44 -69q-22 -23 -47.5 -37.5t-52 -23t-52.5 -12.5t-48 -7v-100h-95 v100q-55 6 -91.5 13t-65.5 16t-54.5 22.5t-57.5 33.5l106 126q22 -14 39.5 -24.5t36 -17.5t39 -12t48.5 -8v132q-40 9 -71.5 17t-56.5 17t-44.5 20.5t-35.5 27.5q-26 26 -38 59.5t-12 67.5q0 45 16 81t41 62q24 26 51.5 41t54 22.5t51 10t44.5 4.5v65zM293 547q-7 -1 -13 -2 t-13 -3q-23 -7 -32.5 -21t-9.5 -26q0 -13 6.5 -21t16 -12.5t21.5 -7.5t24 -5v98zM388 138q6 2 12 3.5t12 3.5q23 9 33.5 25t10.5 31q0 27 -20.5 36.5t-47.5 15.5v-115z" />
<glyph unicode="%" horiz-adv-x="1000" d="M783 450q20 0 39.5 -2t37.5 -9q22 -9 43.5 -26t37.5 -43.5t26 -62t10 -80.5q0 -46 -11.5 -89t-36 -76t-62.5 -52.5t-91 -19.5q-49 0 -85.5 17t-61 47.5t-36.5 72t-12 90.5q0 50 14.5 97t48.5 82q18 18 36 29t35.5 16.5t34.5 7t33 1.5zM782 355q-23 0 -35.5 -14.5 t-18.5 -35.5t-7 -44.5t-1 -40.5q0 -24 1 -47.5t6.5 -42t17.5 -30t33 -11.5q35 0 47.5 34.5t12.5 101.5q0 60 -10.5 94.5t-45.5 35.5zM607 706h92l-302 -706h-92zM222 694q20 0 39.5 -2t37.5 -9q22 -9 43.5 -26t37.5 -43.5t26 -62.5t10 -81q0 -46 -11.5 -88.5t-36.5 -75.5 t-63 -52.5t-90 -19.5q-48 0 -84.5 17t-61 47t-37 71.5t-12.5 90.5q0 50 14.5 97.5t48.5 82.5q18 18 36 29t35.5 16.5t34.5 7t33 1.5zM221 599q-23 0 -35.5 -14.5t-18.5 -35.5t-7 -44.5t-1 -40.5q0 -24 1 -47.5t6.5 -42t17.5 -30t33 -11.5q35 0 47.5 34.5t12.5 100.5 q0 60 -10.5 95t-45.5 36z" />
<glyph unicode="&#x26;" horiz-adv-x="688" d="M675 1q-20 -2 -40.5 -4t-40.5 -2q-29 0 -49 3.5t-34 9t-24 13t-19 16.5q-11 -7 -27.5 -16t-39.5 -17t-53 -13.5t-68 -5.5q-59 0 -109.5 17t-94.5 62q-34 35 -46.5 70t-12.5 79q0 56 17.5 90t46.5 62q24 24 46 37.5t54 27.5q-7 9 -15 21.5t-15 28t-12 35.5t-5 45 q0 13 5 38.5t24.5 51t59.5 44.5t110 19q8 0 27 -1t42 -6t47 -16t44 -31q16 -17 27 -41t11 -61q0 -35 -13 -66t-42 -60q-23 -23 -43.5 -34t-40.5 -20q17 -21 27.5 -34t19.5 -23t17.5 -19.5t20.5 -23.5q6 14 9.5 24t6 19t4.5 19.5t5 25.5l151 -56q-12 -37 -20.5 -60.5t-16 -40 t-15 -29.5t-17.5 -29q14 -6 27.5 -11t32.5 -5q16 0 31 3v-136zM319 486q9 5 19.5 11.5t20 14.5t15.5 18t6 22q0 1 -1 7.5t-5.5 14t-14.5 13.5t-28 6q-20 0 -32.5 -9.5t-12.5 -29.5q0 -18 11 -35.5t22 -32.5zM257 299q-18 -14 -35 -32.5t-17 -50.5q0 -14 5 -30t16 -29 t28 -21.5t41 -8.5q26 0 45 7.5t32 14.5q-20 24 -34 41.5t-26 33t-24.5 33t-30.5 42.5z" />
<glyph unicode="'" horiz-adv-x="208" d="M121 408h-32l-54 250q-1 6 -1.5 12t-0.5 13q0 33 24 49.5t52 16.5q15 0 25.5 -4t17 -9.5t10.5 -10t5 -5.5q7 -11 7.5 -24t-0.5 -26z" />
<glyph unicode="(" horiz-adv-x="354" d="M286 -165q-31 23 -63 48.5t-61.5 56t-55.5 68.5t-46 86t-28.5 97t-8.5 95q0 93 25.5 164.5t63 127t81 97t80.5 73.5l69 -65q-27 -32 -54 -67t-49 -80.5t-36 -103.5t-14 -136q0 -58 9.5 -114t31.5 -108q14 -34 29.5 -59.5t31 -44.5t30.5 -33t27 -25z" />
<glyph unicode=")" horiz-adv-x="354" d="M68 748q31 -23 63 -48t61.5 -56t56 -68.5t46.5 -86.5q20 -48 28 -97t8 -95q0 -93 -25.5 -164.5t-63 -127t-81 -97t-80.5 -73.5l-69 65q27 32 54 67.5t49 80.5t36 103t14 136q0 58 -9.5 114t-31.5 108q-14 34 -29.5 59.5t-31 44.5t-30.5 33t-27 25z" />
<glyph unicode="*" horiz-adv-x="354" d="M129 710h89v-90l88 34l32 -84l-96 -37l65 -77l-71 -54l-62 77l-53 -76l-72 52l53 76l-87 29l28 85l86 -30v95z" />
<glyph unicode="+" horiz-adv-x="667" d="M398 0h-127v228h-229v127h229v227h127v-227h227v-127h-227v-228z" />
<glyph unicode="," horiz-adv-x="250" d="M34 188h182v-144q0 -21 -1.5 -43t-6 -43t-15 -41t-28.5 -39q-30 -30 -63 -39.5t-68 -15.5v88q22 7 34.5 17.5t18.5 22.5t7.5 24.5t1.5 24.5h-62v188z" />
<glyph unicode="-" horiz-adv-x="333" d="M38 402h256v-171h-256v171z" />
<glyph unicode="." horiz-adv-x="250" d="M216 188v-188h-182v188h182z" />
<glyph unicode="/" horiz-adv-x="500" d="M304 706h193l-301 -706h-195z" />
<glyph unicode="0" d="M333 700q87 -1 143.5 -36t89 -87t45 -112.5t12.5 -113.5q0 -64 -16 -129.5t-52.5 -119t-95.5 -87t-145 -33.5q-65 0 -119 23.5t-93 68t-60.5 109.5t-21.5 148q0 75 18.5 142.5t56.5 118t97.5 80t140.5 28.5zM325 564q-17 0 -37 -10t-34 -33q-10 -17 -16 -40.5t-9 -51 t-4 -56t-1 -53.5q0 -28 1.5 -56t7.5 -55q10 -40 32 -63t56 -23q31 0 50.5 19t30.5 49t14.5 67.5t3.5 74.5q0 12 -0.5 30.5t-2 39.5t-3.5 42t-6 37t-10.5 31t-16.5 26t-24 18t-32 7z" />
<glyph unicode="1" d="M110 594q20 -1 47 0t56 14q19 8 32 18.5t20.5 21t12 20.5t7.5 19h178v-687h-206v456q-12 -5 -22.5 -8t-26 -5t-38.5 -3t-60 -1v155z" />
<glyph unicode="2" d="M32 425q1 24 3 49t8 50.5t18.5 50.5t33.5 47q27 28 62 43.5t69 22.5t63 8t44 1q21 0 48 -1.5t56 -8.5t58 -21t53 -38q19 -19 30.5 -40t17.5 -41.5t8 -39t2 -31.5q0 -70 -36 -125.5t-114 -109.5q-34 -23 -69 -43.5t-70 -40.5l69 2l37 1h174v-160h-570v130q61 40 120 80.5 t116 85.5q44 35 70.5 60.5t41 46t19 37t4.5 32.5q0 9 -2 22.5t-10.5 26.5t-25 22.5t-44.5 9.5q-33 0 -51 -13t-26 -30.5t-9.5 -34.5t-1.5 -24q0 -18 2 -28.5t5 -21.5z" />
<glyph unicode="3" d="M26 470q3 19 7 39t11 39.5t18 38.5t28 37q28 28 62.5 43.5t68 22.5t61.5 8t42 1q13 0 40 -1t59.5 -8t67 -22t61.5 -43q16 -16 25 -32.5t14 -32t6.5 -29.5t1.5 -25q0 -39 -12 -65.5t-29 -43.5t-36 -26t-33 -15q15 -4 37.5 -12t43.5 -24.5t36 -44.5t15 -72q0 -38 -15 -76.5 t-41 -65.5q-28 -28 -64.5 -43.5t-72.5 -22.5t-68 -8t-51 -1q-18 0 -47 1.5t-63 9t-68.5 23t-62.5 44.5q-32 33 -44.5 69t-20.5 73l191 36q2 -21 7.5 -44.5t24.5 -41.5q29 -29 85 -29q21 0 42.5 6t36.5 20q16 16 19 33t3 27q0 27 -13.5 42t-32.5 21.5t-38 8t-31 1.5 q-20 0 -29.5 -1.5t-21.5 -3.5v136q22 -3 45 -3q16 0 35.5 2t36.5 9.5t29 22.5t12 40q0 10 -3.5 22.5t-13 23.5t-27.5 19t-48 8q-31 0 -49 -10.5t-28 -26.5t-14 -33.5t-6 -31.5z" />
<glyph unicode="4" d="M331 688h204v-409h88v-136h-88v-143h-196v143h-320v136zM341 465q1 10 1.5 19t1.5 18q0 -1 -6 -10.5t-14 -21t-15 -21.5t-9 -13l-116 -157h155z" />
<glyph unicode="5" d="M91 684h510l-15 -143h-349l-10 -97q5 3 10.5 6t10.5 5q23 9 53.5 14t58.5 5q56 0 104 -16.5t83 -47t55 -73t20 -94.5q0 -50 -19 -97t-53 -81q-28 -29 -61 -45.5t-65.5 -24.5t-62 -10t-51.5 -2q-14 0 -40.5 1t-58.5 8.5t-66.5 23.5t-63.5 46q-33 35 -45 71t-20 75l204 21 q0 -13 0.5 -25.5t4.5 -24.5q9 -29 32 -43.5t54 -14.5q27 0 46.5 9t32 24t18 34.5t5.5 39.5q0 47 -25.5 77t-79.5 30q-21 0 -35 -4.5t-23.5 -11t-15.5 -14t-10 -14.5l-171 21z" />
<glyph unicode="6" d="M415 493q-2 12 -5.5 25t-15.5 26q-24 22 -59 22q-23 0 -44.5 -10t-37.5 -26q-15 -16 -24 -34t-13.5 -36.5t-5.5 -38t-2 -38.5q7 10 16 19q14 13 33.5 23t41 17t44.5 10t43 3q51 0 95.5 -16.5t76.5 -47t50.5 -73t18.5 -93.5q0 -57 -23 -102t-63 -76t-93.5 -47.5 t-114.5 -16.5q-66 0 -125.5 20.5t-100.5 59.5q-33 31 -51 68.5t-26.5 74t-10 68t-1.5 50.5q0 55 10 112t44 116q30 51 67.5 80.5t76 44.5t74 19t61.5 4q77 0 125 -20.5t75.5 -48.5t40 -58.5t18.5 -49.5zM331 325q-50 0 -77.5 -30.5t-27.5 -74.5q0 -45 28 -74.5t74 -29.5 q20 0 38.5 6.5t32.5 19.5t22.5 33t8.5 46q0 49 -28 76.5t-71 27.5z" />
<glyph unicode="7" d="M594 689v-131q-21 -23 -41.5 -45.5t-41 -50t-41.5 -62.5t-43 -82q-23 -50 -38 -92t-25 -80t-16.5 -73.5t-12.5 -72.5h-215q8 33 15.5 62.5t18 60.5t24.5 66.5t35 80.5q24 49 45.5 87.5t41 69.5t38 56.5t36.5 49.5h-331v156h551z" />
<glyph unicode="8" d="M518 363q17 -8 32.5 -17t28.5 -23q21 -20 34 -52.5t13 -70.5q0 -37 -13 -71t-42 -63t-64.5 -45.5t-70 -24t-65 -9t-49.5 -1.5q-32 0 -67 2.5t-70 13.5q-36 10 -66.5 27.5t-53 42t-35 55.5t-12.5 67q0 23 5 43t13 37q11 22 25 37.5t27.5 25.5t26.5 15.5t22 9.5 q-24 14 -42 31q-18 18 -30 46.5t-12 62.5q0 23 5.5 42.5t13.5 35.5q22 44 58 67.5t73.5 34.5t71 13t49.5 2q46 0 84 -5t71 -19q43 -17 66.5 -42t35 -49.5t14 -45.5t2.5 -31q0 -33 -8.5 -56.5t-20.5 -40t-25.5 -27.5t-24.5 -18zM325 565q-19 1 -37.5 -3t-32.5 -17 q-10 -9 -15.5 -22t-5.5 -27q0 -12 5 -24.5t16 -23t28 -17.5t42 -7t41.5 7t26.5 17.5t14.5 23t4.5 23.5q0 7 -2.5 18.5t-11 23t-26 20t-47.5 8.5zM322 290q-31 0 -51 -9t-31.5 -22.5t-16 -29t-4.5 -28.5q0 -4 2 -18t11.5 -29t30 -27t57.5 -12q30 0 50 8t32.5 21t18 28.5 t5.5 29.5q0 12 -4.5 27.5t-16.5 29t-32 22.5t-51 9z" />
<glyph unicode="9" d="M229 190q2 -12 5.5 -25t15.5 -25q11 -11 26.5 -17t32.5 -6q23 0 44.5 10t37.5 26q15 16 24 34t13.5 36.5t5.5 38t2 38.5q-8 -11 -16 -19q-14 -14 -33.5 -23.5t-41 -16.5t-44.5 -10t-43 -3q-51 0 -95.5 16.5t-76.5 47t-50.5 73t-18.5 93.5q0 57 23.5 102t63.5 76 t93.5 47.5t113.5 16.5q66 0 126 -21t100 -59q32 -31 50 -68.5t26.5 -74t10.5 -68t2 -50.5q0 -55 -10 -112t-44 -116q-30 -51 -67.5 -80.5t-75.5 -44.5t-73.5 -19t-62.5 -4q-77 0 -125 20.5t-75.5 49t-40 58.5t-18.5 50zM313 358q50 0 77.5 30.5t27.5 74.5q0 45 -28 74.5 t-74 29.5q-20 0 -38.5 -6.5t-32.5 -19.5t-22.5 -33t-8.5 -46q0 -49 28 -76.5t71 -27.5z" />
<glyph unicode=":" horiz-adv-x="292" d="M74 188h182v-188h-182v188zM74 518h182v-188h-182v188z" />
<glyph unicode=";" horiz-adv-x="292" d="M74 518h182v-188h-182v188zM74 188h182v-144q0 -21 -1.5 -43t-6 -43t-15 -41t-28.5 -39q-30 -30 -63 -39.5t-68 -15.5v88q22 7 34.5 17.5t18.5 22.5t7.5 24.5t1.5 24.5h-62v188z" />
<glyph unicode="&#x3c;" horiz-adv-x="667" d="M667 -3l-667 292v124l667 296v-139l-489 -219l489 -216v-138z" />
<glyph unicode="=" horiz-adv-x="667" d="M667 123h-667v127h667v-127zM667 333h-667v126h667v-126z" />
<glyph unicode="&#x3e;" horiz-adv-x="667" d="M0 -3v138l489 216l-489 219v139l667 -296v-124z" />
<glyph unicode="?" horiz-adv-x="604" d="M45 529q7 25 20 54.5t48 61.5q26 25 54.5 39.5t56 22t54 9.5t49.5 2q15 0 40.5 -1.5t56 -8t62.5 -21t58 -40.5q23 -23 36.5 -53t13.5 -68q0 -32 -9.5 -56.5t-22.5 -42t-26.5 -28.5t-21.5 -17q-20 -15 -41 -28.5t-41 -27.5q-18 -13 -28.5 -22.5t-16 -17.5t-8 -14.5 t-3.5 -13.5h-173q1 18 4 34t11.5 33.5t25 36t45.5 41.5q10 8 19.5 14.5t19.5 14.5q7 5 18 14t21 20t17 24.5t7 28.5q0 9 -3.5 20t-12.5 20.5t-23.5 16.5t-35.5 7q-32 0 -51 -12.5t-29.5 -30t-14.5 -36.5t-5 -32zM380 188v-188h-183v188h183z" />
<glyph unicode="@" horiz-adv-x="896" d="M826 40q-20 -19 -52.5 -47t-78.5 -54t-104.5 -44.5t-129.5 -18.5q-39 0 -83 7t-87.5 24t-83.5 44.5t-70.5 67.5t-49 94t-18.5 125q0 95 35 181t96.5 151t145.5 103.5t182 38.5q80 0 137 -26t93 -67.5t52.5 -92.5t16.5 -101q0 -72 -20 -137.5t-53 -114.5t-76 -78t-89 -29 q-25 0 -45 9.5t-31 24.5q-7 9 -9.5 17.5t-4.5 17.5q-6 -7 -17 -18.5t-26.5 -22.5t-36 -19t-45.5 -8q-12 0 -37 5t-51 27q-29 25 -40 62t-11 75q0 51 16 102.5t44.5 92.5t68.5 66.5t89 25.5q24 0 41 -6t29 -15t20 -19.5t14 -19.5l9 39h91l-34 -158q-10 -51 -15.5 -80.5 t-8 -45t-3 -22.5t-0.5 -13q0 -7 2.5 -19.5t16.5 -12.5q16 0 38 21t42 57t34 84.5t14 104.5q0 61 -21 102.5t-53.5 66.5t-72.5 35.5t-77 10.5q-72 0 -138.5 -31.5t-117.5 -85.5t-81.5 -125.5t-30.5 -151.5q0 -87 32 -142t78.5 -86.5t98.5 -43.5t93 -12q64 0 116 16.5 t92.5 39.5t69.5 48t48 42zM524 350q0 22 -6.5 38t-16 26.5t-21.5 15t-24 4.5q-26 0 -47.5 -18t-37.5 -46t-24.5 -62t-8.5 -67q0 -32 9.5 -49t20.5 -25t21 -9.5t12 -1.5q24 0 46.5 17.5t39.5 45t27 62t10 69.5z" />
<glyph unicode="A" horiz-adv-x="792" d="M269 706h254l264 -706h-240l-31 98h-246l-31 -98h-240zM395 505l-77 -249h152z" />
<glyph unicode="B" horiz-adv-x="729" d="M44 706h418q16 -1 39 -2.5t47.5 -7t48.5 -17t44 -30.5q24 -23 36 -55.5t12 -66.5q0 -39 -14.5 -71t-35.5 -53q-14 -14 -28.5 -22t-31.5 -16q22 -6 42 -14t41 -29q30 -29 38.5 -61.5t8.5 -58.5q0 -40 -12.5 -78.5t-39.5 -65.5q-20 -20 -43 -31.5t-47 -17t-47 -7t-44 -2.5 h-432v706zM267 557v-120h123q8 0 20.5 1t24 6.5t20 17.5t8.5 34t-8 34t-18.5 18t-22.5 7.5t-19 1.5h-128zM266 289v-137h140q15 1 30 4t28 17q18 18 18 46q0 25 -9.5 39t-23 20.5t-27 8.5t-21.5 2h-135z" />
<glyph unicode="C" horiz-adv-x="750" d="M736 182q-14 -26 -28.5 -50t-40.5 -50q-54 -54 -126 -79t-148 -25q-95 0 -164 32.5t-114 85t-66.5 119t-21.5 134.5q0 71 23.5 140t70 123t114.5 87t158 33q81 0 154 -28.5t129 -85.5q23 -23 35.5 -42.5t23.5 -40.5l-187 -93q-7 16 -17.5 36t-27 38t-41.5 30.5t-60 12.5 q-37 0 -60.5 -13.5t-34.5 -24.5q-20 -19 -30.5 -42.5t-15.5 -46t-6 -41.5t-1 -29q0 -39 8 -76t25.5 -65.5t46 -45.5t69.5 -17q39 0 65 14.5t42.5 34t24.5 39t11 28.5z" />
<glyph unicode="D" horiz-adv-x="750" d="M44 706h240q59 -1 108.5 -2.5t91 -9.5t77 -24t66.5 -45q55 -51 76.5 -122.5t21.5 -146.5q0 -56 -11 -109t-35 -98t-61.5 -78.5t-90.5 -51.5q-43 -14 -90 -16.5t-99 -2.5h-294v706zM268 541v-379h85q24 2 47.5 6t46.5 27q26 24 39.5 66t13.5 92q0 31 -5 56.5t-13 47.5 q-11 30 -26.5 46.5t-33 24.5t-36 10t-34.5 3h-84z" />
<glyph unicode="E" d="M43 706h559v-155h-335v-105h313v-153h-313v-140h365v-153h-589v706z" />
<glyph unicode="F" horiz-adv-x="625" d="M603 706v-156h-336v-127h314v-152h-314v-271h-223v706h559z" />
<glyph unicode="G" horiz-adv-x="792" d="M586 50q-12 -9 -30 -21t-43.5 -22.5t-59.5 -17.5t-79 -7q-40 0 -73 7t-60 18q-25 10 -61.5 34t-70.5 65t-58 100.5t-24 142.5q0 76 24.5 146t72 123t118 85t162.5 32q80 0 156 -27t129 -79q32 -31 45.5 -59t22.5 -53l-200 -56q-4 17 -9.5 34t-22.5 34q-16 16 -42.5 26.5 t-61.5 10.5q-40 0 -67.5 -12.5t-44.5 -28.5q-21 -19 -32 -43t-16 -47.5t-6 -44t-1 -32.5q0 -16 1 -36t6.5 -41.5t16 -43t29.5 -40.5q16 -17 33.5 -26.5t34 -14t30 -5.5t22.5 -1q7 0 20 1t27.5 4.5t30 11t28.5 21.5q14 15 18.5 29.5t8.5 31.5h-131v142h324v-390h-167v49z" />
<glyph unicode="H" horiz-adv-x="750" d="M44 706h223v-257h213v257h225v-706h-225v272h-213v-272h-223v706z" />
<glyph unicode="I" horiz-adv-x="313" d="M44 706h224v-706h-224v706z" />
<glyph unicode="J" horiz-adv-x="417" d="M148 707h223v-511q0 -17 -1 -36.5t-5.5 -39t-13 -38t-24.5 -34.5q-18 -17 -40 -26.5t-46 -14t-47.5 -6t-44.5 -1.5h-149v174q12 -3 23.5 -4.5t34.5 -1.5q29 0 46.5 6t27 16.5t13 25.5t3.5 33v458z" />
<glyph unicode="K" horiz-adv-x="771" d="M44 706h223v-267l222 267h273l-246 -268l263 -438h-251l-156 282l-104 -115v-167h-224v706z" />
<glyph unicode="L" horiz-adv-x="542" d="M44 707h223v-529h273v-178h-496v707z" />
<glyph unicode="M" horiz-adv-x="958" d="M43 706h319l87 -326q6 -26 10 -44t7 -33.5t5.5 -32t6.5 -40.5q5 33 8.5 54.5t7 39.5t7.5 35.5t10 43.5l80 303h320v-706h-213v408q0 19 0.5 33t1.5 26.5t1.5 27.5t2.5 38q-5 -20 -7.5 -33t-5.5 -24.5t-6.5 -24.5t-8.5 -32l-117 -419h-166l-109 397q-6 21 -9.5 34 t-6.5 25.5t-7 28.5t-10 44q1 -17 2 -28t1.5 -21t0.5 -20.5v-25.5v-434h-212v706z" />
<glyph unicode="N" horiz-adv-x="771" d="M44 706h237l159 -267q15 -27 25 -46.5t19 -37.5t18.5 -38.5t23.5 -50.5q-2 26 -3.5 43.5t-2.5 34t-1.5 36t-1.5 49.5v277h209v-706h-240l-143 244q-15 26 -26 45t-21.5 38.5t-22 43.5t-28.5 59q2 -24 3 -40.5t2 -31.5t1.5 -31.5t0.5 -40.5v-286h-208v706z" />
<glyph unicode="O" horiz-adv-x="812" d="M406 732q105 0 177 -34.5t116.5 -88.5t64.5 -120t20 -129q0 -67 -20.5 -135.5t-66.5 -123.5t-118.5 -89.5t-176.5 -34.5q-108 0 -180.5 36t-116 91t-61.5 121.5t-18 126.5q0 76 23.5 144.5t71 121t118.5 83.5t167 31zM406 554q-30 0 -58 -11t-50 -35t-35 -62t-13 -93 q0 -93 38 -145t118 -52q68 0 110.5 52t42.5 152q0 26 -2.5 49t-10.5 44q-13 37 -33.5 57t-41.5 30t-39.5 12t-25.5 2z" />
<glyph unicode="P" horiz-adv-x="708" d="M44 707h404q29 -1 56 -3t52 -9t48.5 -19.5t44.5 -34.5q19 -21 31 -43t18 -43.5t8 -41.5t2 -37q0 -44 -13 -90.5t-54 -89.5q-22 -23 -45.5 -36t-48.5 -19.5t-51.5 -8t-55.5 -2.5h-172v-230h-224v707zM268 558v-180h128q9 1 18.5 1.5t18.5 3.5q26 8 40 31t14 55 q0 31 -10.5 48.5t-25.5 26.5t-31 11t-26 3h-126z" />
<glyph unicode="Q" horiz-adv-x="812" d="M754 -83q-22 4 -43 9.5t-42.5 15.5t-43.5 26.5t-46 43.5q-22 -9 -64.5 -22t-115.5 -13q-102 0 -172.5 33t-115 86.5t-64.5 121t-20 136.5q0 80 25.5 152t82.5 127q32 31 66.5 51t69.5 30.5t70.5 14.5t69.5 4q29 0 61.5 -3t67 -13.5t69 -29.5t66.5 -51q54 -53 81.5 -124.5 t27.5 -149.5q0 -17 -2 -43t-10 -61q-13 -53 -29 -82.5t-33 -54.5q18 -12 32.5 -21t27 -14.5t25 -9t27.5 -4.5zM405 554q-20 0 -47.5 -7t-53.5 -36q-18 -20 -28.5 -43t-15.5 -45.5t-6 -41.5t-1 -31q0 -91 37.5 -142.5t112.5 -51.5q32 0 60 12t49 37t33 63.5t12 92.5 q0 55 -13.5 92.5t-35 60t-48.5 31.5t-55 9z" />
<glyph unicode="R" horiz-adv-x="708" d="M44 707h352q51 0 96.5 -4t77.5 -18q35 -15 58.5 -39t37.5 -52.5t20 -58t6 -54.5q0 -10 -1.5 -26t-6.5 -35.5t-16 -40.5t-30 -40q-21 -23 -43.5 -33.5t-47.5 -20.5l172 -285h-248l-137 249h-66v-249h-224v707zM268 559v-165h93q14 0 32.5 1.5t35.5 9.5t28.5 24.5 t11.5 46.5t-11.5 47t-28.5 25t-35.5 9.5t-33.5 1.5h-92z" />
<glyph unicode="S" horiz-adv-x="729" d="M178 244q7 -12 15 -22.5t18.5 -20t26 -18.5t38.5 -16q46 -16 99 -16q7 0 24.5 1t35.5 6.5t32 16t14 29.5q0 2 -0.5 7t-4.5 12t-11.5 13.5t-22.5 11.5q-9 3 -35 8.5t-55.5 11.5t-56 11t-37.5 8q-24 6 -57 18t-63 35.5t-51 60t-21 92.5q0 48 20 91q17 39 47 66.5t68.5 45 t83.5 25.5t93 8q61 0 115 -11.5t98 -33.5q40 -20 62.5 -40t41.5 -40l-140 -117q-8 11 -19.5 22.5t-34.5 23.5q-31 15 -67.5 20.5t-63.5 5.5q-14 0 -28.5 -2t-26 -7.5t-18.5 -14.5t-7 -22q0 -26 25.5 -36t71.5 -18q59 -10 115 -22.5t100 -37t71 -64.5t27 -106 q0 -56 -19.5 -95t-43.5 -64q-33 -34 -74 -52.5t-79.5 -27t-70 -10t-46.5 -1.5q-40 0 -81 4.5t-83 16.5t-73.5 29t-54.5 35.5t-39.5 36.5t-28.5 33z" />
<glyph unicode="T" horiz-adv-x="583" d="M0 707h581v-175h-179v-532h-223v532h-179v175z" />
<glyph unicode="U" horiz-adv-x="729" d="M42 706h224v-441q0 -23 3.5 -45t22.5 -40q14 -14 32.5 -20t38.5 -6q26 0 43.5 8t27.5 17q20 19 23.5 41t3.5 45v441h225v-376q0 -30 -1.5 -64.5t-9 -69t-24.5 -68t-48 -63.5q-38 -36 -99 -60t-143 -24q-78 0 -142.5 23t-103.5 61q-26 25 -40.5 52.5t-21.5 55.5t-8.5 56.5 t-2.5 56.5v420z" />
<glyph unicode="V" horiz-adv-x="708" d="M0 706h228l84 -280q10 -33 16 -56t10 -42.5t7.5 -40t7.5 -49.5q5 29 8.5 48.5t7.5 36.5t8.5 35t12.5 45l89 303h229l-239 -706h-233z" />
<glyph unicode="W" horiz-adv-x="1042" d="M-2 706h218l69 -308q7 -32 11.5 -54t8 -41.5t6 -40t5.5 -49.5q4 30 7.5 50.5t7 40t8 41.5t12.5 54l73 307h189l77 -307q8 -33 13 -55.5t8 -41.5t6 -39.5t6 -48.5q4 29 7 49.5t6 39.5t7 39.5t10 50.5l70 313h217l-176 -706h-239l-64 256q-9 36 -14.5 61.5t-10 48t-9 48 t-10.5 61.5q-4 -33 -7 -55.5t-7 -43t-9 -43.5t-12 -56l-68 -277h-240z" />
<glyph unicode="X" horiz-adv-x="833" d="M530 706h255l-223 -326l271 -380h-264l-153 254l-156 -254h-262l273 379l-229 327h262l112 -194z" />
<glyph unicode="Y" horiz-adv-x="792" d="M255 706l138 -235l136 235h259l-285 -409v-297h-223v297l-283 409h258z" />
<glyph unicode="Z" horiz-adv-x="667" d="M23 706h631v-144l-356 -390h355v-172h-651v141l362 396h-341v169z" />
<glyph unicode="[" horiz-adv-x="354" d="M41 707h300v-113h-134v-603h134v-113h-300v829z" />
<glyph unicode="\" horiz-adv-x="500" d="M304 0l-303 706h195l301 -706h-193z" />
<glyph unicode="]" horiz-adv-x="354" d="M312 707v-829h-300v113h134v603h-134v113h300z" />
<glyph unicode="^" horiz-adv-x="729" d="M615 311h-138l-110 231l-116 -231h-137l203 395h104z" />
<glyph unicode="_" horiz-adv-x="500" d="M510 -125h-520v50h520v-50z" />
<glyph unicode="`" horiz-adv-x="313" d="M225 724l76 -137h-127l-162 137h213z" />
<glyph unicode="a" horiz-adv-x="604" d="M37 362q3 16 7.5 34.5t14 36.5t26.5 35t45 32q44 23 94.5 29t91.5 6q61 0 103.5 -9.5t69.5 -25.5t42 -36t22 -41t8 -41.5t1 -35.5v-282q0 -13 0.5 -21.5t2.5 -15.5t5.5 -13t9.5 -14h-203v40q-10 -7 -24 -16t-34.5 -17t-48.5 -13.5t-64 -5.5q-49 0 -84 13.5t-58 37 t-34 53.5t-11 63q0 23 8 53t36 58q18 18 37.5 29t43 18.5t51.5 11.5t62 9q21 3 36.5 5.5t28 5t23 5.5t22.5 6q0 13 -3 24t-10.5 18.5t-21 12t-35.5 4.5q-35 0 -48.5 -10.5t-18.5 -37.5zM366 241l-30 -10t-31 -10l-26 -6t-27 -8q-15 -6 -23.5 -13t-12.5 -13.5t-5 -12t-1 -7.5 q0 -11 11 -25.5t40 -14.5q11 0 24.5 3.5t27 11t25 18.5t18.5 26q8 17 9 32t1 29z" />
<glyph unicode="b" horiz-adv-x="625" d="M247 706v-224q7 7 18 16t26.5 16.5t37 13t50.5 5.5q42 0 83 -15.5t72.5 -47.5t51 -81.5t19.5 -117.5q0 -61 -15.5 -113t-45.5 -90t-73.5 -59.5t-99.5 -21.5q-15 0 -35 2.5t-42 10.5t-32 17t-21 21v-38h-200v706h206zM373 158q11 11 20 34t9 68q0 34 -6 61 q-7 24 -18.5 37.5t-23 19.5t-20.5 7t-12 1q-29 0 -52 -23q-10 -11 -15.5 -24.5t-8.5 -27.5t-3.5 -27t-0.5 -23q0 -17 1 -33t6 -31q6 -21 16 -33t20.5 -18t20.5 -8t15 -2q32 0 52 22z" />
<glyph unicode="c" horiz-adv-x="562" d="M560 139q-10 -21 -20 -38.5t-30 -37.5q-11 -11 -29 -25.5t-44.5 -27.5t-62 -21.5t-80.5 -8.5q-64 0 -115 20.5t-87 58t-55 89.5t-19 115q0 65 21 116t53 84q27 28 58.5 44t61 23.5t54.5 9.5t40 2q13 0 37 -1.5t53 -9t61 -24t62 -46.5q15 -15 23.5 -27t17.5 -27l-157 -89 q-10 35 -30 57t-57 22q-24 0 -41.5 -11t-29 -30t-17.5 -44.5t-6 -54.5q0 -15 2.5 -35.5t11.5 -39t27 -31.5t48 -13q24 0 40 10t26.5 23.5t16.5 28.5t9 25z" />
<glyph unicode="d" horiz-adv-x="625" d="M377 706h206v-706h-200v38q-11 -12 -21 -21t-32 -17t-42 -10.5t-36 -2.5q-56 0 -99 21.5t-73 59.5t-45.5 90t-15.5 113q0 68 19.5 117.5t51 81.5t72.5 47.5t83 15.5q29 0 50.5 -5.5t37 -13t26 -16.5t18.5 -16v224zM251 158q20 -22 52 -22q14 0 27.5 6t24.5 17 q10 10 15.5 24t8 28t3 27t0.5 23q0 17 -1.5 33t-6.5 32q-6 18 -15 30t-19.5 18.5t-20.5 9t-17 2.5q-3 0 -12 -1t-20.5 -7t-23 -19.5t-18.5 -37.5q-6 -27 -6 -61q0 -45 9 -68t20 -34z" />
<glyph unicode="e" horiz-adv-x="604" d="M578 121q-46 -70 -113.5 -106t-161.5 -36q-72 0 -125.5 24t-89.5 63t-53.5 90t-17.5 105q0 63 21 114.5t58.5 88t90 56t115.5 19.5q48 0 104 -15.5t104 -61.5q28 -28 44 -58t23.5 -60.5t9 -61t2.5 -60.5h-362q1 -17 4.5 -36.5t20.5 -36.5q4 -4 18.5 -14t43.5 -10 q35 0 56.5 17.5t37.5 49.5zM379 331q-1 6 -1 12t-2 12q-7 28 -27.5 40.5t-41.5 12.5q-23 0 -37.5 -9t-23 -21t-12 -25t-5.5 -22h150z" />
<glyph unicode="f" horiz-adv-x="375" d="M76 558q1 29 6.5 57t31.5 54q6 6 17 14.5t29.5 16t44.5 13t62 5.5q34 0 57.5 -4t50.5 -9v-141q-8 3 -16 5t-22 2q-21 0 -32 -6.5t-16.5 -16t-6 -21t-0.5 -21.5h93v-112h-93v-394h-206v394h-77v112h77v52z" />
<glyph unicode="g" horiz-adv-x="625" d="M207 -7q0 -9 1.5 -20t9 -21.5t24 -17.5t46.5 -7q21 0 42.5 5.5t34.5 17.5q15 15 17.5 34.5t2.5 45.5v25t1 24q-3 -5 -6 -8.5t-6 -7.5q-2 -2 -9 -8t-21.5 -12.5t-37 -11.5t-55.5 -5q-59 0 -102.5 19t-72.5 52.5t-43.5 79.5t-14.5 99q0 39 10 84t37 83.5t74.5 63.5 t122.5 25q35 0 68 -9t57 -33q10 -9 18 -21l-1 49h178v-488q-1 -23 -3.5 -49t-13 -51.5t-31.5 -49t-58 -41.5q-38 -18 -88 -26t-101 -8q-8 0 -27 0.5t-42 3t-48 6.5t-46 11q-38 13 -58.5 33t-30.5 43t-12 46.5t-3 44.5h187zM300 390q-32 0 -49.5 -16t-25.5 -36.5t-9.5 -40.5 t-1.5 -27q0 -57 19.5 -82.5t61.5 -25.5q31 0 48 13t25.5 31t10 38t1.5 35q0 10 -1.5 29t-9 37t-23.5 31.5t-46 13.5z" />
<glyph unicode="h" d="M41 707h205v-241q7 9 19 21.5t31 24t47.5 20t68.5 8.5q45 0 82.5 -14t61.5 -38q16 -17 25 -36t13.5 -38.5t6 -38.5t2.5 -36v-339h-205v296q0 9 -1.5 21.5t-8.5 24t-22 20t-42 8.5q-29 0 -44.5 -9t-22.5 -21t-8.5 -25.5t-1.5 -22.5v-292h-206v707z" />
<glyph unicode="i" horiz-adv-x="292" d="M42 706h206v-137h-206v137zM42 518h206v-518h-206v518z" />
<glyph unicode="j" horiz-adv-x="292" d="M43 706h206v-137h-206v137zM43 519h206v-511q0 -29 -1 -51.5t-4 -40.5t-10 -33t-20 -28q-20 -20 -49.5 -30t-63.5 -14.5t-69 -4.5t-66 1v150q43 -2 60 10.5t17 44.5v507z" />
<glyph unicode="k" d="M40 706h207v-336l140 148h252l-197 -187l206 -331h-235l-113 197l-54 -52v-145h-206v706z" />
<glyph unicode="l" horiz-adv-x="292" d="M41 706h207v-706h-207v706z" />
<glyph unicode="m" horiz-adv-x="1000" d="M239 443q6 10 16.5 24.5t29 28.5t47.5 24t71 10q14 0 34.5 -2t44.5 -10q25 -8 42 -18.5t28.5 -22t18.5 -23t12 -21.5q6 13 18 29.5t33.5 31.5t53 25.5t75.5 10.5q42 0 80 -13t64 -39q18 -17 27.5 -36t14 -38.5t6 -39t1.5 -37.5v-327h-206v271q0 12 -1.5 27.5t-8 29 t-21 23t-41.5 9.5q-28 0 -43.5 -10t-22.5 -23.5t-8.5 -27.5t-1.5 -23v-277h-206v280q0 15 -3 30q-7 30 -28.5 40.5t-40.5 10.5q-16 0 -30.5 -5t-25.5 -16q-14 -14 -16.5 -29t-3.5 -29v-282h-206v518h197v-74z" />
<glyph unicode="n" d="M236 449q6 9 17.5 23t31 27t49 22.5t72.5 9.5q31 0 54 -5.5t40 -13t28.5 -15.5t17.5 -14q18 -18 28.5 -39t16 -42t6.5 -40.5t1 -34.5v-327h-206v283q0 10 -1 23.5t-8 25.5t-21 20.5t-40 8.5q-27 0 -42.5 -9.5t-22.5 -22.5t-8.5 -28t-1.5 -25v-276h-206v518h195v-69z" />
<glyph unicode="o" d="M326 540q79 -1 133 -23.5t84 -51.5q37 -35 59 -90t22 -117q0 -61 -20.5 -112t-60.5 -88t-97.5 -57.5t-130.5 -20.5q-78 0 -134 23.5t-92 62t-52.5 88t-16.5 101.5q0 64 21 116.5t60.5 90t96 58t128.5 20.5zM320 395q-29 -1 -47.5 -14t-29 -32.5t-14.5 -42.5t-4 -45 q0 -19 3 -42.5t13.5 -44.5t29 -35.5t50.5 -14.5q27 0 45 10.5t29.5 29.5t16 44.5t4.5 54.5q0 12 -2 34.5t-11 44.5t-28.5 38t-54.5 15z" />
<glyph unicode="p" horiz-adv-x="625" d="M242 478q6 6 15.5 15t25.5 18t40 15t57 6q63 0 106 -24t69.5 -63t38.5 -88.5t12 -100.5q0 -57 -13.5 -106t-42 -85t-71.5 -57t-101 -21q-32 0 -54 5t-38 12.5t-26 16t-16 14.5v-223h-203v706h201v-40zM326 382q-32 2 -55 -21q-11 -11 -17 -24t-9 -27.5t-3.5 -28 t-0.5 -24.5q0 -18 1.5 -36t7.5 -35q7 -20 18 -31t21.5 -16t19.5 -6t12 -1q15 0 29 5.5t24 16.5q14 14 21.5 38.5t7.5 60.5q0 15 -2 37t-9.5 42t-23 34.5t-42.5 15.5z" />
<glyph unicode="q" horiz-adv-x="625" d="M381 35q-6 -6 -16 -14.5t-26 -16t-38.5 -12.5t-53.5 -5q-59 0 -101.5 21t-71 57t-42 85t-13.5 106q0 51 12 100.5t38.5 88.5t69.5 63t106 24q33 0 57 -6t40 -15t25.5 -18t15.5 -15v40h201v-706h-203v223zM299 382q-27 -1 -42.5 -15.5t-23 -34.5t-9.5 -42t-2 -37 q0 -36 7.5 -60.5t21.5 -38.5q10 -11 24 -16.5t29 -5.5q29 0 51 20q11 10 17 24.5t8.5 29t3 28.5t0.5 23q0 17 -1.5 34t-6.5 33q-7 22 -19 34t-24 17.5t-21.5 6t-12.5 0.5z" />
<glyph unicode="r" horiz-adv-x="417" d="M239 473q21 19 39.5 30t38.5 17t42.5 7.5t52.5 1.5v-174q-11 1 -21 1.5t-21 0.5q-45 0 -70 -13t-37 -31t-14.5 -37t-2.5 -32v-244h-205v521h198v-48z" />
<glyph unicode="s" horiz-adv-x="542" d="M115 189q14 -14 31 -27t47 -26q28 -11 48.5 -14t33.5 -3q19 0 36.5 7.5t17.5 24.5q0 19 -18 25.5t-34 8.5q-14 2 -43.5 7.5t-64.5 16.5q-18 5 -42.5 14t-47 26t-38 44t-15.5 68q0 35 14.5 65t37.5 53q23 22 49.5 34t52 18t47 7t34.5 1q56 0 117 -14q27 -6 46.5 -13.5 t34.5 -15t26.5 -16t22.5 -16.5l-111 -101q-26 17 -58.5 33t-74.5 16q-3 0 -10.5 -0.5t-15 -3t-13 -8t-5.5 -15.5q0 -7 3.5 -11.5t12.5 -8.5t25 -8.5t42 -10.5q34 -8 57 -13t38 -9.5t25 -8t19 -8.5q39 -21 60 -55.5t21 -79.5q0 -38 -16 -73t-47 -61.5t-77 -42t-106 -15.5 q-56 0 -100 11t-77.5 27.5t-58.5 34t-41 31.5z" />
<glyph unicode="t" horiz-adv-x="375" d="M74 669h207l-2 -163h89v-112h-90l-2 -199q0 -8 1 -17t6.5 -17.5t16.5 -14t32 -5.5q9 0 18.5 1t18.5 3v-141q-35 -5 -66.5 -8t-63.5 -3q-8 0 -24.5 1t-36 5t-40 12.5t-35.5 24.5q-13 13 -20 28t-10.5 29t-4 27t-0.5 23l3 251h-71v112h72z" />
<glyph unicode="u" d="M40 518h206v-282q0 -12 1.5 -26.5t8.5 -27t22 -21.5t42 -9t42 9.5t22.5 23.5t9 30t1.5 29v274h207v-518h-196v76q-5 -11 -10 -19t-16 -19q-29 -28 -67 -39.5t-78 -11.5q-31 0 -54.5 5.5t-41 13t-29 16.5t-18.5 16q-19 18 -29 39.5t-15 43t-6.5 43t-1.5 39.5v315z" />
<glyph unicode="v" horiz-adv-x="562" d="M-3 518h218l41 -192q4 -23 6.5 -39l5 -32t5 -35.5t5.5 -48.5q3 26 5.5 44.5t5 35.5t6 36.5t8.5 47.5l42 183h216l-173 -518h-218z" />
<glyph unicode="w" horiz-adv-x="854" d="M-1 518h210l40 -195q5 -29 8.5 -47.5t6 -35.5t4.5 -35l5 -45q3 29 5.5 49t5 38t6 37t8.5 47l38 187h177l38 -182q6 -28 9.5 -47.5t6.5 -37.5t5.5 -39t6.5 -52q2 24 3.5 39.5t3 29.5t4 29t6.5 37l44 223h211l-155 -518h-205l-46 207q-5 26 -8.5 43.5t-5.5 33.5t-3.5 33.5 t-3.5 43.5q-1 -22 -2 -37t-2.5 -28.5t-4.5 -28.5t-7 -37l-48 -230h-205z" />
<glyph unicode="x" horiz-adv-x="604" d="M237 518l64 -155l68 155h222l-157 -245l172 -273h-220l-85 168l-84 -168h-221l174 272l-154 246h221z" />
<glyph unicode="y" horiz-adv-x="583" d="M0 518h215l51 -223q4 -23 7 -38.5t5.5 -31.5t5 -34.5t6.5 -47.5q3 30 6 50t5.5 36.5t5.5 32.5t8 39l52 217h214l-189 -548q-11 -29 -23.5 -59t-37.5 -54q-17 -16 -32.5 -25t-32 -13t-36 -5t-43.5 -1q-17 0 -30.5 0.5t-26 1t-25 2t-27.5 3.5v147q13 -1 28.5 -2t29.5 -1 q21 0 32.5 5.5t11.5 19.5q0 3 -2 10t-4.5 15t-5.5 15.5t-4 12.5z" />
<glyph unicode="z" horiz-adv-x="542" d="M39 518h490v-118l-241 -245h239v-155h-519v114l246 250h-215v154z" />
<glyph unicode="{" horiz-adv-x="354" d="M1 330q29 7 45 23.5t23.5 38.5t8.5 47.5t1 51.5v46q0 36 1 62t5.5 46.5t13.5 35.5t23 28q14 12 30.5 20t42.5 12t64 5.5t95 1.5v-74q-40 -8 -62 -22t-32.5 -34.5t-12.5 -48t-2 -63.5v-8q0 -46 -2 -80t-12.5 -58.5t-31.5 -41t-59 -26.5q22 -7 47 -19.5t42 -45.5 q6 -11 9.5 -23.5t5 -28.5t2 -37.5t0.5 -51.5v-9q0 -41 3 -68.5t14 -47t32.5 -31.5t58.5 -21v-74q-80 0 -127 3t-76 17q-28 13 -42.5 34.5t-21 46t-7 50t-0.5 46.5v51q0 36 -1.5 64t-10.5 49q-14 32 -34 43t-33 16v75z" />
<glyph unicode="|" horiz-adv-x="229" d="M178 -250h-127v1000h127v-1000z" />
<glyph unicode="}" horiz-adv-x="354" d="M354 253q-29 -7 -45 -23.5t-23.5 -38.5t-8.5 -48t-1 -51v-46q0 -36 -1 -62t-5.5 -46.5t-13.5 -35.5t-23 -28q-14 -12 -30.5 -20t-42.5 -12t-64 -5.5t-95 -1.5v74q40 8 62 22t32.5 34.5t12.5 48t2 63.5v8q0 46 2 80t12.5 58.5t31.5 40.5t59 27q-22 7 -47 19.5t-42 45.5 q-12 22 -14.5 52t-2.5 89v9q0 40 -3 68t-14 47.5t-32.5 31.5t-58.5 21v74q80 0 127 -3.5t76 -16.5q28 -13 42.5 -34.5t21 -46t7 -50t0.5 -46.5v-51q0 -36 1.5 -64t10.5 -49q14 -32 34 -43t33 -16v-75z" />
<glyph unicode="~" horiz-adv-x="729" d="M626 282q-12 -14 -29.5 -29t-37.5 -27t-42.5 -19.5t-46.5 -7.5q-29 0 -54.5 10t-49.5 21l-31 15q-24 11 -40 16.5t-33 5.5q-16 0 -27.5 -3.5t-23 -11.5t-24 -21.5t-29.5 -33.5l-55 103q9 12 22 28.5t31.5 31t44 25t58.5 10.5q28 0 52 -9t51 -22l36 -16q20 -9 38.5 -16 t36.5 -7q20 0 44.5 12t56.5 50z" />
<glyph unicode="&#xa1;" horiz-adv-x="292" d="M215 0h-183v192l39 256h101l43 -258v-190zM32 518v188h183v-188h-183z" />
<glyph unicode="&#xa2;" horiz-adv-x="583" d="M256 647h100v-114q26 -3 62 -13t78 -42q28 -22 41.5 -41t24.5 -36l-156 -88q-5 12 -10.5 25.5t-15.5 25t-25 19t-38 7.5q-26 0 -43 -11.5t-27.5 -30t-15 -43.5t-4.5 -52q0 -16 2 -37t10.5 -39.5t25.5 -31.5t47 -13q22 0 38 9t27 21.5t18 27.5t12 27l159 -86 q-9 -17 -19 -34t-28 -36q-21 -22 -42.5 -36t-43 -22.5t-41.5 -13.5t-36 -8v-128h-100v128q-63 8 -107.5 32.5t-72.5 60.5t-40.5 81t-12.5 93q0 66 22.5 124.5t72.5 101.5q40 34 77.5 44.5t60.5 12.5v116z" />
<glyph unicode="&#xa3;" horiz-adv-x="729" d="M133 401q-6 7 -13.5 17.5t-14 24.5t-11 32t-4.5 41q0 27 10.5 59.5t40.5 62.5q27 28 61 43t67 22t60.5 8t42.5 1q42 0 84.5 -5.5t79.5 -19t66 -38t45 -61.5q14 -34 16.5 -67t1.5 -65h-178q2 24 -2 44.5t-16 35t-33 23t-53 8.5q-48 0 -73 -20.5t-25 -53.5q0 -27 15 -50 t30 -42h156v-102h-90q12 -21 19.5 -42t7.5 -46q0 -11 -1.5 -21t-3.5 -21q18 -12 41 -25.5t41 -13.5q15 0 22.5 7t11.5 16.5t4.5 20t0.5 18.5q0 16 -1 23t-3 19h172v-65t-4.5 -56t-14 -48t-27.5 -39q-20 -19 -52.5 -30.5t-68.5 -11.5q-31 0 -58 7.5t-50.5 18t-42.5 23 t-34 22.5q-9 -8 -23.5 -20t-36 -23t-51 -18.5t-67.5 -7.5q-35 0 -64.5 8.5t-51.5 24.5t-34 39.5t-12 53.5q0 33 15 58t39 41t53 24t57 8q14 0 27.5 -1.5t27.5 -3.5q-4 9 -7.5 15.5l-7 13t-9 14t-14.5 18.5h-134v102h71zM248 128q-14 6 -28.5 11.5t-34.5 5.5t-33.5 -8 t-13.5 -25q0 -12 9 -21t28 -9q29 0 46.5 17t26.5 29z" />
<glyph unicode="&#xa4;" horiz-adv-x="667" d="M580 490q9 -16 16.5 -31.5t13 -32.5t9 -38t3.5 -48q0 -29 -3.5 -50t-9 -38.5t-13.5 -33t-17 -31.5l81 -82l-96 -95l-80 82q-32 -17 -65 -29.5t-86 -12.5q-27 0 -48 3.5t-39 9.5t-33.5 14t-30.5 17l-81 -82l-94 95l81 81q-7 11 -14.5 25t-14 32.5t-10.5 42t-4 55.5 q0 26 3.5 46.5t9 37t13 31.5t16.5 31l-79 81l94 95l80 -80q16 9 31.5 16.5t33 13.5t39 9.5t48.5 3.5q28 0 48.5 -3.5t38 -9t32.5 -13.5t32 -17l80 80l96 -95zM497 339q0 39 -14 69.5t-37.5 52t-53 32.5t-59.5 11q-29 0 -58 -10.5t-52 -31.5t-38 -52t-15 -72q0 -38 14 -68.5 t37.5 -51.5t53 -32.5t59.5 -11.5q35 0 65 12.5t51.5 35t34 52.5t12.5 65z" />
<glyph unicode="&#xa5;" horiz-adv-x="792" d="M392 460l137 237h259l-155 -219h76v-122h-162l-44 -63v-7h206v-122h-206v-164h-223v164h-198v122h198v7l-44 63h-154v122h69l-154 219h258z" />
<glyph unicode="&#xa6;" horiz-adv-x="229" d="M51 175h127v-350h-127v350zM51 325v350h127v-350h-127z" />
<glyph unicode="&#xa7;" horiz-adv-x="625" d="M153 38q26 -16 49.5 -29t58.5 -24q26 -8 44.5 -11t29.5 -3q14 0 28 5t14 19q0 17 -25.5 31.5t-84.5 38.5q-60 25 -106.5 47.5t-78.5 48t-48.5 57.5t-16.5 76q0 36 10 62t25 44.5t32 31t31 21.5q-14 18 -24 37t-10 50q0 25 11 54t35.5 53.5t64 41t96.5 16.5 q26 0 51.5 -3.5t51.5 -9.5q28 -7 51 -14.5t42.5 -16.5t38 -19t38.5 -22l-93 -105q-16 9 -35 19t-41.5 18.5t-48.5 14t-56 5.5q-14 0 -27.5 -4t-13.5 -18q0 -11 11.5 -19t35.5 -19l84 -36q44 -19 85 -39t73 -45.5t51.5 -59.5t19.5 -80q0 -34 -10.5 -59.5t-25.5 -45 t-32.5 -33.5t-31.5 -24q18 -17 26 -40.5t8 -49.5q0 -31 -13.5 -60t-40 -51t-66 -35t-91.5 -13q-44 0 -81.5 8t-71 21t-63.5 29t-59 33zM207 381q-11 -11 -22.5 -26.5t-11.5 -33.5q0 -16 9 -28.5t24.5 -23.5t35.5 -20.5t42 -19.5q27 -12 43.5 -19.5t29.5 -13.5t25.5 -12 t30.5 -15q25 20 30.5 36t5.5 23q0 12 -6 22t-14.5 17.5t-17 12.5t-14.5 8q-14 8 -29 14.5t-30 14.5q-33 15 -66 31t-65 33z" />
<glyph unicode="&#xa8;" horiz-adv-x="313" d="M-48 724h166v-119h-166v119zM197 724h165v-119h-165v119z" />
<glyph unicode="&#xa9;" horiz-adv-x="833" d="M773 351q-1 -76 -29.5 -141t-76.5 -112t-112.5 -74t-136.5 -27t-137 26.5t-113.5 73.5t-77.5 112.5t-29 143.5q0 76 28.5 141t77 113t113 75t137.5 27q79 0 144.5 -29t113 -78.5t73 -114t25.5 -136.5zM741 351q0 66 -24 125.5t-67 104t-102.5 70.5t-129.5 26 q-67 0 -126 -25t-103.5 -68.5t-70 -103.5t-25.5 -129q0 -64 24.5 -122.5t67.5 -102.5t102.5 -70.5t129.5 -26.5q68 0 131 26.5t109 76.5q24 26 40 55.5t26 58.5t14 56t4 49zM621 189q-40 -42 -86 -63t-109 -21q-64 0 -111 21t-78 55.5t-46.5 79.5t-15.5 93q0 51 17.5 96.5 t49.5 79.5t78.5 54t103.5 20q42 0 73 -9t54.5 -22t40.5 -28t29 -27l-87 -84q-8 7 -18.5 16t-23.5 16.5t-29.5 12.5t-37.5 5q-60 0 -93 -37t-33 -92t32 -92.5t97 -37.5q22 0 39.5 5t30.5 12.5t22 15t14 12.5z" />
<glyph unicode="&#xaa;" horiz-adv-x="396" d="M30 604q4 20 10.5 38t29.5 37q15 13 33 20t36 10.5t33.5 4.5t26.5 1q85 0 125.5 -26t40.5 -87v-202q1 -9 3 -13.5t8 -12.5h-130v26q-18 -16 -43 -25t-61 -9q-60 0 -91.5 30.5t-31.5 76.5q0 26 11.5 48t31.5 36q10 7 19 11t21 7.5t28 6t39 6.5q18 2 35.5 5.5t35.5 7.5 q-2 17 -8.5 26.5t-34.5 9.5q-24 0 -32 -7.5t-11 -22.5zM239 526q-3 -1 -12.5 -4t-20 -6t-20.5 -6t-14 -4q-10 -4 -19.5 -9.5t-9.5 -18.5q0 -14 10.5 -20t20.5 -6q9 0 20 4t22 13q17 14 19.5 28t3.5 29z" />
<glyph unicode="&#xab;" horiz-adv-x="417" d="M189 100l-157 125v183l157 125v-149l-89 -69l89 -67v-148zM383 100l-157 125v183l157 125v-149l-90 -69l90 -67v-148z" />
<glyph unicode="&#xac;" horiz-adv-x="667" d="M539 227h-539v127h666v-354h-127v227z" />
<glyph unicode="&#xad;" horiz-adv-x="333" d="M38 402h256v-171h-256v171z" />
<glyph unicode="&#xae;" horiz-adv-x="833" d="M413 586q29 0 57 -1.5t51 -9.5q44 -14 62.5 -47.5t18.5 -65.5q0 -26 -8.5 -43.5t-20.5 -29.5t-26 -19.5t-25 -12.5q10 -7 18 -13t14 -15t10.5 -23t8.5 -35q7 -47 14.5 -79.5t24.5 -63.5h-126q-11 21 -15.5 45t-9.5 54q-5 32 -8.5 50.5t-11.5 27.5t-22.5 11.5t-39.5 3.5 h-19v-192h-110v458h163zM360 407h48q25 0 39.5 1.5t24.5 7.5q11 6 15.5 17.5t4.5 22.5t-5 23t-19 18q-5 2 -9.5 3t-12.5 1.5t-20.5 0.5h-32.5h-33v-95zM773 352q0 -74 -28 -139t-76 -113t-113 -75.5t-141 -27.5q-69 0 -133.5 26t-113.5 73t-78.5 112.5t-29.5 144.5 q0 77 28.5 142t77.5 112.5t113.5 74.5t136.5 27q77 0 142.5 -28.5t113.5 -77.5t74.5 -113.5t26.5 -137.5zM741 352q0 66 -24 125.5t-67.5 103.5t-103 70t-128.5 26t-128.5 -25.5t-103.5 -69.5t-69 -103t-25 -126q0 -68 25.5 -127.5t69.5 -103t103 -68.5t126 -25 q69 0 128 25.5t102.5 69t69 102.5t25.5 126z" />
<glyph unicode="&#xaf;" horiz-adv-x="313" d="M-48 605v93h410v-93h-410z" />
<glyph unicode="&#xb0;" horiz-adv-x="354" d="M5 574q0 36 13.5 67t37 54.5t54.5 37t67 13.5t67 -13.5t54.5 -37t37 -54.5t13.5 -67t-13.5 -67t-37 -54.5t-54.5 -37t-67 -13.5t-67 13.5t-54.5 37t-37 54.5t-13.5 67zM121 574q0 -23 16.5 -39.5t39.5 -16.5t39.5 16.5t16.5 39.5t-16.5 39.5t-39.5 16.5t-39.5 -16.5 t-16.5 -39.5z" />
<glyph unicode="&#xb1;" horiz-adv-x="667" d="M398 162h-127v209h-228v127h228v208h127v-208h227v-127h-227v-209zM625 0h-582v127h582v-127z" />
<glyph unicode="&#xb2;" horiz-adv-x="437" d="M22 511q1 32 6.5 65t28.5 60q18 21 41 32t46.5 16t45 6t35.5 1q12 0 29 -0.5t35.5 -4.5t37.5 -11.5t36 -21.5q16 -14 25 -30.5t13 -31t5 -26t1 -16.5q0 -32 -10 -56t-24 -42t-28.5 -30t-23.5 -18q-19 -14 -39 -26l-40 -24h159v-110h-381v89q18 10 41.5 23t49.5 29.5 t53 36t51 41.5q18 16 28.5 29t15.5 23t6 17.5t1 12.5q0 15 -5 24.5t-13 15t-17.5 7.5t-18.5 2q-23 0 -40 -12t-17 -50q0 -10 1 -18.5t3 -18.5z" />
<glyph unicode="&#xb3;" horiz-adv-x="437" d="M22 552q1 9 4 21.5t8.5 26.5t15 28.5t24.5 26.5q30 25 70 32t71 7q26 0 51.5 -3t48.5 -13q27 -11 43 -26t24 -30.5t10.5 -30t2.5 -24.5q0 -23 -6.5 -38.5t-15.5 -26t-19 -17t-17 -10.5q12 -5 25 -12.5t23.5 -18.5t17 -27.5t6.5 -38.5q0 -10 -2.5 -24.5t-9 -30.5t-19 -32 t-33.5 -28q-29 -18 -63 -23t-69 -5q-92 0 -140.5 32t-63.5 104l128 24q4 -33 23 -47t49 -14q25 0 42.5 11.5t17.5 37.5q0 15 -8.5 23.5t-19 12.5t-21.5 4.5t-15 0.5q-8 0 -14.5 -0.5t-13.5 -0.5l-1 93h33t28 4t19 12t7 24q0 22 -15.5 32t-39.5 10q-32 0 -43 -14t-16 -40z " />
<glyph unicode="&#xb4;" horiz-adv-x="313" d="M89 724h212l-161 -137h-128z" />
<glyph unicode="&#xb5;" d="M406 76q-15 -41 -32.5 -61.5t-51.5 -20.5t-50 13.5t-26 27.5v-223h-206v706h206v-282q0 -12 1.5 -26.5t8.5 -27t22 -21.5t43 -9q27 0 42 9.5t22 23.5t8.5 30t1.5 29v274h207v-518h-196v76z" />
<glyph unicode="&#xb6;" horiz-adv-x="667" d="M558 706v-78h-36v-795h-84v795h-118v-795h-84v459q-22 6 -41.5 13.5t-42.5 25.5q-40 31 -55.5 75.5t-15.5 84.5q0 13 2 31.5t8.5 40t18.5 43.5t33 42q22 21 43.5 32.5t42.5 17t40.5 7t38.5 1.5h250z" />
<glyph unicode="&#xb7;" horiz-adv-x="250" d="M216 410v-188h-182v188h182z" />
<glyph unicode="&#xb8;" horiz-adv-x="313" d="M127 5l47 -15l-24 -49q6 1 12.5 1.5t13.5 0.5q42 0 63 -22.5t21 -50.5q0 -13 -5 -27t-18 -27q-25 -25 -55 -29.5t-52 -4.5q-26 0 -43 2t-34 5l3 55q6 -2 10 -3t12 -1q21 0 32 7t11 15q0 2 -3 9t-22 7q-17 0 -38 -6l3 36z" />
<glyph unicode="&#xb9;" horiz-adv-x="437" d="M77 626q23 0 41 1.5t31.5 7.5t23 18t15.5 32h121v-442h-139v285q-10 -3 -18 -4.5t-17.5 -2.5t-23 -1h-34.5v106z" />
<glyph unicode="&#xba;" horiz-adv-x="417" d="M199 717q48 1 85 -11.5t62.5 -36t39 -56.5t13.5 -73q0 -47 -16.5 -81t-43.5 -56t-62.5 -32t-74.5 -10q-47 0 -82 14.5t-58.5 38.5t-35 56t-11.5 67q0 32 10 63.5t32 57t57 41.5t85 18zM203 623q-12 -1 -24 -6.5t-21 -22.5q-8 -16 -9.5 -33.5t-1.5 -22.5q0 -14 2.5 -29 t9 -27t18 -19.5t30.5 -7.5q18 0 29.5 8t18 20t9 27.5t2.5 30.5q0 9 -1.5 23.5t-7.5 28t-18.5 23t-35.5 7.5z" />
<glyph unicode="&#xbb;" horiz-adv-x="417" d="M226 533l157 -125v-183l-157 -125v149l89 69l-89 67v148zM32 533l157 -125v-183l-157 -125v149l90 69l-90 67v148z" />
<glyph unicode="&#xbc;" horiz-adv-x="1000" d="M607 706h92l-302 -706h-91zM77 626q23 0 41 1.5t31.5 7.5t23 18t15.5 32h121v-442h-139v285q-10 -3 -18 -4.5t-17.5 -2.5t-23 -1h-34.5v106zM777 443h136v-257h63v-97h-63v-89h-130v89h-209v87zM785 246q0 35 3 71q-11 -17 -21.5 -33t-21.5 -33t-23 -32.5t-25 -32.5h87z " />
<glyph unicode="&#xbd;" horiz-adv-x="1000" d="M584 706h92l-302 -706h-92zM77 626q23 0 41 1.5t31.5 7.5t23 18t15.5 32h121v-442h-139v285q-10 -3 -18 -4.5t-17.5 -2.5t-23 -1h-34.5v106zM585 268q1 32 6.5 65t28.5 60q18 21 41 32t46.5 16t45 6t35.5 1q12 0 29 -0.5t35.5 -4.5t37.5 -11.5t36 -21.5q16 -14 25 -30.5 t13 -31t5 -26t1 -16.5q0 -32 -10 -56t-24 -42t-28.5 -30t-23.5 -18q-19 -14 -39 -26l-40 -24h159v-110h-381v89q18 10 41.5 23t49.5 29.5t53 36t51 41.5q18 16 28.5 29t15.5 23t6 17.5t1 12.5q0 15 -5 24.5t-13 15t-17.5 7.5t-18.5 2q-23 0 -40 -12t-17 -50q0 -10 1 -18.5 t3 -18.5z" />
<glyph unicode="&#xbe;" horiz-adv-x="1000" d="M606 706h93l-303 -706h-91zM777 443h136v-257h63v-97h-63v-89h-130v89h-210v87zM785 246q0 35 3 70q-11 -16 -21.5 -32t-21.5 -33t-23.5 -32.5t-24.5 -32.5h87zM22 552q1 9 4 21.5t8.5 26.5t15 28.5t24.5 26.5q30 25 70 32t71 7q26 0 51.5 -3t48.5 -13q27 -11 43 -26 t24 -30.5t10.5 -30t2.5 -24.5q0 -23 -6.5 -38.5t-15.5 -26t-19 -17t-17 -10.5q12 -5 25 -12.5t23.5 -18.5t17 -27.5t6.5 -38.5q0 -10 -2.5 -24.5t-9 -30.5t-19 -32t-33.5 -28q-29 -18 -63 -23t-69 -5q-92 0 -140.5 32t-63.5 104l128 24q4 -33 23 -47t49 -14q25 0 42.5 11.5 t17.5 37.5q0 15 -8.5 23.5t-19 12.5t-21.5 4.5t-15 0.5q-8 0 -14.5 -0.5t-13.5 -0.5l-1 93h33t28 4t19 12t7 24q0 22 -15.5 32t-39.5 10q-32 0 -43 -14t-16 -40z" />
<glyph unicode="&#xbf;" horiz-adv-x="604" d="M558 178q-4 -12 -8.5 -26t-12 -28.5t-18.5 -30.5t-29 -32q-26 -24 -54 -38.5t-55.5 -22t-54 -9.5t-50.5 -2q-15 0 -41 1t-56 8t-61.5 21.5t-57.5 40.5q-23 23 -36.5 53t-13.5 68q0 32 9.5 56.5t22.5 42t26.5 28.5t21.5 17q20 14 41.5 27.5t41.5 27.5q18 13 28 22.5 t15 17.5t7 14.5t4 13.5h173q-2 -18 -4.5 -34t-11 -33.5t-25 -36t-45.5 -40.5q-10 -8 -19.5 -14.5t-19.5 -14.5q-8 -6 -18.5 -14.5t-20 -20t-16.5 -24.5t-7 -28q0 -9 3.5 -20t12 -21t23 -16.5t35.5 -6.5q32 0 51 12.5t29.5 30t14 36.5t5.5 32zM224 518v188h182v-188h-182z " />
<glyph unicode="&#xc0;" horiz-adv-x="792" d="M269 706h254l264 -706h-240l-31 98h-246l-31 -98h-240zM395 505l-77 -249h152zM424 874l64 -120h-131l-150 120h217z" />
<glyph unicode="&#xc1;" horiz-adv-x="792" d="M269 706h254l264 -706h-240l-31 98h-246l-31 -98h-240zM395 505l-77 -249h152zM370 874h217l-150 -120h-132z" />
<glyph unicode="&#xc2;" horiz-adv-x="792" d="M269 706h254l264 -706h-240l-31 98h-246l-31 -98h-240zM395 505l-77 -249h152zM318 874h161l96 -123h-144l-34 52l-31 -52h-141z" />
<glyph unicode="&#xc3;" horiz-adv-x="792" d="M269 706h254l264 -706h-240l-31 98h-246l-31 -98h-240zM395 505l-77 -249h152zM596 877q-3 -18 -8.5 -39t-17.5 -39.5t-33.5 -30.5t-57.5 -12q-20 0 -39 3t-48 9q-32 7 -42.5 9t-14.5 2q-17 0 -20 -8.5t-4 -14.5h-101q3 17 8.5 38.5t17.5 40t32.5 31t54.5 12.5 q11 0 20 -0.5t20 -2.5t26.5 -5.5t39.5 -8.5q8 -2 15.5 -3t15.5 -1q17 0 22 6t8 14h106z" />
<glyph unicode="&#xc4;" horiz-adv-x="792" d="M269 706h254l264 -706h-240l-31 98h-246l-31 -98h-240zM395 505l-77 -249h152zM199 876h166v-118h-166v118zM428 876h166v-118h-166v118z" />
<glyph unicode="&#xc5;" horiz-adv-x="792" d="M269 706h254l264 -706h-240l-31 98h-246l-31 -98h-240zM395 505l-77 -249h152zM369 805q9 -11 25 -11q15 0 25.5 10.5t10.5 26.5q0 14 -10 25t-26 11q-15 0 -25.5 -11t-10.5 -25q0 -17 11 -26zM311 758q-15 14 -24 33t-9 40q0 16 6.5 33.5t20 32.5t35.5 24.5t54 9.5 q31 0 53 -9.5t36 -24.5t20.5 -32.5t6.5 -33.5q0 -17 -6.5 -34.5t-20.5 -32.5t-36 -24.5t-53 -9.5q-23 0 -44.5 6.5t-38.5 21.5z" />
<glyph unicode="&#xc6;" horiz-adv-x="1104" d="M396 706h658v-153h-325v-107h300v-154h-300v-137h360v-155h-576v100h-227l-51 -100h-252zM512 385q1 20 1.5 40.5t1.5 41.5q1 26 2 51t3 51q0 -2 -7 -18t-15.5 -35t-16.5 -36.5t-10 -21.5l-106 -204h149z" />
<glyph unicode="&#xc7;" horiz-adv-x="750" d="M736 182q-14 -26 -28.5 -50t-40.5 -50q-36 -35 -74 -55.5t-72.5 -31t-63 -13.5t-45.5 -4l-17 -45q12 3 22.5 5t21.5 2q20 0 35.5 -7t25.5 -18t15 -25t5 -29q0 -43 -35.5 -71t-100.5 -28q-19 0 -37.5 2t-36.5 4l-1 59q9 -2 17.5 -3t16.5 -1q2 0 8.5 0.5t13 2.5t12 7.5 t5.5 14.5q0 6 -6 13.5t-23 7.5q-12 0 -23 -3.5t-22 -8.5v45l50 77q-17 1 -42.5 5t-55.5 13.5t-62.5 28t-63.5 50.5q-56 56 -81.5 126.5t-25.5 146.5q0 71 23.5 140t70 123t114.5 87t158 33q78 0 152 -27.5t131 -86.5q23 -24 35.5 -43.5t23.5 -39.5l-187 -93q-7 16 -17.5 36 t-27 38t-41.5 30.5t-60 12.5q-31 0 -54.5 -10.5t-40.5 -27.5q-20 -19 -30.5 -42.5t-15.5 -46t-6 -41.5t-1 -29q0 -39 8 -76t25.5 -65.5t45.5 -45.5t69 -17q39 0 65.5 14.5t43 34t24.5 39t11 28.5z" />
<glyph unicode="&#xc8;" d="M43 706h559v-155h-335v-105h313v-153h-313v-140h365v-153h-589v706zM351 874l64 -120h-131l-150 120h217z" />
<glyph unicode="&#xc9;" d="M43 706h559v-155h-335v-105h313v-153h-313v-140h365v-153h-589v706zM297 874h217l-150 -120h-132z" />
<glyph unicode="&#xca;" d="M43 706h559v-155h-335v-105h313v-153h-313v-140h365v-153h-589v706zM245 874h161l96 -123h-144l-34 52l-31 -52h-141z" />
<glyph unicode="&#xcb;" d="M43 706h559v-155h-335v-105h313v-153h-313v-140h365v-153h-589v706zM128 876h166v-118h-166v118zM357 876h166v-118h-166v118z" />
<glyph unicode="&#xcc;" horiz-adv-x="313" d="M44 706h224v-706h-224v706zM184 874l64 -120h-131l-150 120h217z" />
<glyph unicode="&#xcd;" horiz-adv-x="313" d="M44 706h224v-706h-224v706zM130 874h217l-150 -120h-132z" />
<glyph unicode="&#xce;" horiz-adv-x="313" d="M44 706h224v-706h-224v706zM78 874h161l96 -123h-144l-34 52l-31 -52h-141z" />
<glyph unicode="&#xcf;" horiz-adv-x="313" d="M44 706h224v-706h-224v706zM-39 876h166v-118h-166v118zM190 876h166v-118h-166v118z" />
<glyph unicode="&#xd0;" horiz-adv-x="750" d="M44 300h-44v131h44v275h240q59 -1 108.5 -2.5t91 -9.5t77 -24t66.5 -45q55 -51 76.5 -122.5t21.5 -146.5q0 -56 -11 -109t-35 -98t-61.5 -78.5t-90.5 -51.5q-43 -14 -90 -16.5t-99 -2.5h-294v300zM268 431h145v-131h-145v-138h85q24 2 47.5 6t46.5 27q25 24 39 65.5 t14 92.5q0 26 -4 52t-14 52q-11 30 -26.5 46.5t-33 24.5t-36 10t-34.5 3h-84v-110z" />
<glyph unicode="&#xd1;" horiz-adv-x="771" d="M44 706h237l159 -267q15 -27 25 -46.5t19 -37.5t18.5 -38.5t23.5 -50.5q-2 26 -3.5 43.5t-2.5 34t-1.5 36t-1.5 49.5v277h209v-706h-240l-143 244q-15 26 -26 45t-21.5 38.5t-22 43.5t-28.5 59q2 -24 3 -40.5t2 -31.5t1.5 -31.5t0.5 -40.5v-286h-208v706zM585 877 q-3 -18 -8.5 -39t-17.5 -39.5t-33.5 -30.5t-57.5 -12q-20 0 -39 3t-48 9q-32 7 -42.5 9t-14.5 2q-17 0 -20 -8.5t-4 -14.5h-101q3 17 8.5 38.5t17.5 40t32.5 31t54.5 12.5q11 0 20 -0.5t20 -2.5t26.5 -5.5t39.5 -8.5q8 -2 15.5 -3t15.5 -1q17 0 22 6t8 14h106z" />
<glyph unicode="&#xd2;" horiz-adv-x="812" d="M406 732q105 0 177 -34.5t116.5 -88.5t64.5 -120t20 -129q0 -67 -20.5 -135.5t-66.5 -123.5t-118.5 -89.5t-176.5 -34.5q-108 0 -180.5 36t-116 91t-61.5 121.5t-18 126.5q0 76 23.5 144.5t71 121t118.5 83.5t167 31zM406 554q-30 0 -58 -11t-50 -35t-35 -62t-13 -93 q0 -93 38 -145t118 -52q68 0 110.5 52t42.5 152q0 26 -2.5 49t-10.5 44q-13 37 -33.5 57t-41.5 30t-39.5 12t-25.5 2zM434 874l64 -120h-131l-150 120h217z" />
<glyph unicode="&#xd3;" horiz-adv-x="812" d="M406 732q105 0 177 -34.5t116.5 -88.5t64.5 -120t20 -129q0 -67 -20.5 -135.5t-66.5 -123.5t-118.5 -89.5t-176.5 -34.5q-108 0 -180.5 36t-116 91t-61.5 121.5t-18 126.5q0 76 23.5 144.5t71 121t118.5 83.5t167 31zM406 554q-30 0 -58 -11t-50 -35t-35 -62t-13 -93 q0 -93 38 -145t118 -52q68 0 110.5 52t42.5 152q0 26 -2.5 49t-10.5 44q-13 37 -33.5 57t-41.5 30t-39.5 12t-25.5 2zM380 874h217l-150 -120h-132z" />
<glyph unicode="&#xd4;" horiz-adv-x="812" d="M406 732q105 0 177 -34.5t116.5 -88.5t64.5 -120t20 -129q0 -67 -20.5 -135.5t-66.5 -123.5t-118.5 -89.5t-176.5 -34.5q-108 0 -180.5 36t-116 91t-61.5 121.5t-18 126.5q0 76 23.5 144.5t71 121t118.5 83.5t167 31zM406 554q-30 0 -58 -11t-50 -35t-35 -62t-13 -93 q0 -93 38 -145t118 -52q68 0 110.5 52t42.5 152q0 26 -2.5 49t-10.5 44q-13 37 -33.5 57t-41.5 30t-39.5 12t-25.5 2zM328 874h161l96 -123h-144l-34 52l-31 -52h-141z" />
<glyph unicode="&#xd5;" horiz-adv-x="812" d="M406 732q105 0 177 -34.5t116.5 -88.5t64.5 -120t20 -129q0 -67 -20.5 -135.5t-66.5 -123.5t-118.5 -89.5t-176.5 -34.5q-108 0 -180.5 36t-116 91t-61.5 121.5t-18 126.5q0 76 23.5 144.5t71 121t118.5 83.5t167 31zM406 554q-30 0 -58 -11t-50 -35t-35 -62t-13 -93 q0 -93 38 -145t118 -52q68 0 110.5 52t42.5 152q0 26 -2.5 49t-10.5 44q-13 37 -33.5 57t-41.5 30t-39.5 12t-25.5 2zM606 877q-3 -18 -8.5 -39t-17.5 -39.5t-33.5 -30.5t-57.5 -12q-20 0 -39 3t-48 9q-32 7 -42.5 9t-14.5 2q-17 0 -20 -8.5t-4 -14.5h-101q3 17 8.5 38.5 t17.5 40t32.5 31t54.5 12.5q11 0 20 -0.5t20 -2.5t26.5 -5.5t39.5 -8.5q8 -2 15.5 -3t15.5 -1q17 0 22 6t8 14h106z" />
<glyph unicode="&#xd6;" horiz-adv-x="812" d="M406 732q105 0 177 -34.5t116.5 -88.5t64.5 -120t20 -129q0 -67 -20.5 -135.5t-66.5 -123.5t-118.5 -89.5t-176.5 -34.5q-108 0 -180.5 36t-116 91t-61.5 121.5t-18 126.5q0 76 23.5 144.5t71 121t118.5 83.5t167 31zM406 554q-30 0 -58 -11t-50 -35t-35 -62t-13 -93 q0 -93 38 -145t118 -52q68 0 110.5 52t42.5 152q0 26 -2.5 49t-10.5 44q-13 37 -33.5 57t-41.5 30t-39.5 12t-25.5 2zM209 876h166v-118h-166v118zM438 876h166v-118h-166v118z" />
<glyph unicode="&#xd7;" horiz-adv-x="667" d="M516 19l-183 182l-182 -182l-90 91l182 181l-182 183l90 88l182 -181l183 181l89 -88l-181 -183l181 -181z" />
<glyph unicode="&#xd8;" horiz-adv-x="812" d="M92 124q-9 14 -20 34t-20.5 48t-16.5 64t-7 82q0 34 5 71.5t18 75t35 74.5t57 69q32 29 65.5 47t66.5 27.5t65 13t61 3.5q36 0 64.5 -3.5t51.5 -8.5q25 -5 43.5 -11.5t34 -15t30 -18.5t31.5 -22l79 75l66 -71l-83 -78q9 -14 20 -33t21.5 -45.5t17.5 -61t7 -78.5 q0 -62 -20 -130t-65 -124.5t-117 -93.5t-176 -37q-28 0 -62 3.5t-72 14.5q-47 13 -71.5 27.5t-44.5 30.5l-76 -72l-66 70zM510 516q-21 25 -48.5 33t-52.5 8q-73 0 -116.5 -50.5t-43.5 -150.5q0 -20 2 -39.5t4 -39.5zM301 189q17 -13 38.5 -25t60.5 -12q45 0 71.5 15.5 t37.5 27.5q32 32 42 75t10 88q0 23 -1.5 38t-3.5 33z" />
<glyph unicode="&#xd9;" horiz-adv-x="729" d="M42 706h224v-441q0 -23 3.5 -45t22.5 -40q14 -14 32.5 -20t38.5 -6q26 0 43.5 8t27.5 17q20 19 23.5 41t3.5 45v441h225v-376q0 -30 -1.5 -64.5t-9 -69t-24.5 -68t-48 -63.5q-38 -36 -99 -60t-143 -24q-78 0 -142.5 23t-103.5 61q-26 25 -40.5 52.5t-21.5 55.5t-8.5 56.5 t-2.5 56.5v420zM393 874l64 -120h-131l-150 120h217z" />
<glyph unicode="&#xda;" horiz-adv-x="729" d="M42 706h224v-441q0 -23 3.5 -45t22.5 -40q14 -14 32.5 -20t38.5 -6q26 0 43.5 8t27.5 17q20 19 23.5 41t3.5 45v441h225v-376q0 -30 -1.5 -64.5t-9 -69t-24.5 -68t-48 -63.5q-38 -36 -99 -60t-143 -24q-78 0 -142.5 23t-103.5 61q-26 25 -40.5 52.5t-21.5 55.5t-8.5 56.5 t-2.5 56.5v420zM339 874h217l-150 -120h-132z" />
<glyph unicode="&#xdb;" horiz-adv-x="729" d="M42 706h224v-441q0 -23 3.5 -45t22.5 -40q14 -14 32.5 -20t38.5 -6q26 0 43.5 8t27.5 17q20 19 23.5 41t3.5 45v441h225v-376q0 -30 -1.5 -64.5t-9 -69t-24.5 -68t-48 -63.5q-38 -36 -99 -60t-143 -24q-78 0 -142.5 23t-103.5 61q-26 25 -40.5 52.5t-21.5 55.5t-8.5 56.5 t-2.5 56.5v420zM287 874h161l96 -123h-144l-34 52l-31 -52h-141z" />
<glyph unicode="&#xdc;" horiz-adv-x="729" d="M42 706h224v-441q0 -23 3.5 -45t22.5 -40q14 -14 32.5 -20t38.5 -6q26 0 43.5 8t27.5 17q20 19 23.5 41t3.5 45v441h225v-376q0 -30 -1.5 -64.5t-9 -69t-24.5 -68t-48 -63.5q-38 -36 -99 -60t-143 -24q-78 0 -142.5 23t-103.5 61q-26 25 -40.5 52.5t-21.5 55.5t-8.5 56.5 t-2.5 56.5v420zM166 875h166v-118h-166v118zM395 875h166v-118h-166v118z" />
<glyph unicode="&#xdd;" horiz-adv-x="792" d="M255 706l138 -235l136 235h259l-285 -409v-297h-223v297l-283 409h258zM370 874h217l-150 -120h-132z" />
<glyph unicode="&#xde;" horiz-adv-x="708" d="M44 707h224v-100h179q29 -1 56.5 -3t52.5 -8.5t48.5 -19.5t44.5 -35q19 -21 31 -43t18 -43.5t8 -42t2 -36.5q0 -46 -13 -92t-54 -88q-22 -23 -45.5 -36t-48.5 -19.5t-51.5 -8t-55.5 -2.5h-172v-130h-224v707zM268 458v-180h128q9 1 18.5 1.5t18.5 3.5q26 8 40 31t14 55 q0 31 -10.5 48.5t-25.5 26.5t-31 11t-26 3h-126z" />
<glyph unicode="&#xdf;" horiz-adv-x="625" d="M41 454q0 25 1.5 50.5t7.5 50t18.5 47.5t34.5 44q26 24 57.5 37.5t62 20t56.5 7.5t41 1t38 -1t49.5 -6.5t53.5 -17.5t50 -33q21 -20 35.5 -50t14.5 -75q0 -31 -6.5 -52t-16.5 -34.5t-21.5 -21.5t-20.5 -13q15 -4 33 -11.5t34 -26t27 -52.5t11 -91q0 -52 -13.5 -101 t-49.5 -85q-19 -19 -41 -29.5t-43.5 -16t-41 -7t-32.5 -1.5q-37 0 -57 6t-38 14v130q11 -7 23 -13t29 -6q37 0 52.5 30t15.5 87q0 39 -7 60.5t-20 32.5t-32 14t-42 3v110q10 -2 16 -2q27 0 40 19t13 47q0 32 -15 50.5t-47 18.5q-24 0 -37 -9t-19 -22.5t-7 -28.5t-1 -28v-500 h-206v454z" />
<glyph unicode="&#xe0;" horiz-adv-x="604" d="M37 362q3 16 7.5 34.5t14 36.5t26.5 35t45 32q44 23 94.5 29t91.5 6q61 0 103.5 -9.5t69.5 -25.5t42 -36t22 -41t8 -41.5t1 -35.5v-282q0 -13 0.5 -21.5t2.5 -15.5t5.5 -13t9.5 -14h-203v40q-10 -7 -24 -16t-34.5 -17t-48.5 -13.5t-64 -5.5q-49 0 -84 13.5t-58 37 t-34 53.5t-11 63q0 23 8 53t36 58q18 18 37.5 29t43 18.5t51.5 11.5t62 9q21 3 36.5 5.5t28 5t23 5.5t22.5 6q0 13 -3 24t-10.5 18.5t-21 12t-35.5 4.5q-35 0 -48.5 -10.5t-18.5 -37.5zM366 241l-30 -10t-31 -10l-26 -6t-27 -8q-15 -6 -23.5 -13t-12.5 -13.5t-5 -12t-1 -7.5 q0 -11 11 -25.5t40 -14.5q11 0 24.5 3.5t27 11t25 18.5t18.5 26q8 17 9 32t1 29zM346 724l76 -137h-127l-162 137h213z" />
<glyph unicode="&#xe1;" horiz-adv-x="604" d="M37 362q3 16 7.5 34.5t14 36.5t26.5 35t45 32q44 23 94.5 29t91.5 6q61 0 103.5 -9.5t69.5 -25.5t42 -36t22 -41t8 -41.5t1 -35.5v-282q0 -13 0.5 -21.5t2.5 -15.5t5.5 -13t9.5 -14h-203v40q-10 -7 -24 -16t-34.5 -17t-48.5 -13.5t-64 -5.5q-49 0 -84 13.5t-58 37 t-34 53.5t-11 63q0 23 8 53t36 58q18 18 37.5 29t43 18.5t51.5 11.5t62 9q21 3 36.5 5.5t28 5t23 5.5t22.5 6q0 13 -3 24t-10.5 18.5t-21 12t-35.5 4.5q-35 0 -48.5 -10.5t-18.5 -37.5zM366 241l-30 -10t-31 -10l-26 -6t-27 -8q-15 -6 -23.5 -13t-12.5 -13.5t-5 -12t-1 -7.5 q0 -11 11 -25.5t40 -14.5q11 0 24.5 3.5t27 11t25 18.5t18.5 26q8 17 9 32t1 29zM308 724h212l-161 -137h-128z" />
<glyph unicode="&#xe2;" horiz-adv-x="604" d="M37 362q3 16 7.5 34.5t14 36.5t26.5 35t45 32q44 23 94.5 29t91.5 6q61 0 103.5 -9.5t69.5 -25.5t42 -36t22 -41t8 -41.5t1 -35.5v-282q0 -13 0.5 -21.5t2.5 -15.5t5.5 -13t9.5 -14h-203v40q-10 -7 -24 -16t-34.5 -17t-48.5 -13.5t-64 -5.5q-49 0 -84 13.5t-58 37 t-34 53.5t-11 63q0 23 8 53t36 58q18 18 37.5 29t43 18.5t51.5 11.5t62 9q21 3 36.5 5.5t28 5t23 5.5t22.5 6q0 13 -3 24t-10.5 18.5t-21 12t-35.5 4.5q-35 0 -48.5 -10.5t-18.5 -37.5zM366 241l-30 -10t-31 -10l-26 -6t-27 -8q-15 -6 -23.5 -13t-12.5 -13.5t-5 -12t-1 -7.5 q0 -11 11 -25.5t40 -14.5q11 0 24.5 3.5t27 11t25 18.5t18.5 26q8 17 9 32t1 29zM228 724h156l104 -138h-143l-41 66l-40 -66h-142z" />
<glyph unicode="&#xe3;" horiz-adv-x="604" d="M37 362q3 16 7.5 34.5t14 36.5t26.5 35t45 32q44 23 94.5 29t91.5 6q61 0 103.5 -9.5t69.5 -25.5t42 -36t22 -41t8 -41.5t1 -35.5v-282q0 -13 0.5 -21.5t2.5 -15.5t5.5 -13t9.5 -14h-203v40q-10 -7 -24 -16t-34.5 -17t-48.5 -13.5t-64 -5.5q-49 0 -84 13.5t-58 37 t-34 53.5t-11 63q0 23 8 53t36 58q18 18 37.5 29t43 18.5t51.5 11.5t62 9q21 3 36.5 5.5t28 5t23 5.5t22.5 6q0 13 -3 24t-10.5 18.5t-21 12t-35.5 4.5q-35 0 -48.5 -10.5t-18.5 -37.5zM366 241l-30 -10t-31 -10l-26 -6t-27 -8q-15 -6 -23.5 -13t-12.5 -13.5t-5 -12t-1 -7.5 q0 -11 11 -25.5t40 -14.5q11 0 24.5 3.5t27 11t25 18.5t18.5 26q8 17 9 32t1 29zM114 588q3 21 7 45t14.5 45t29 35t49.5 14q15 0 38 -4t57 -14q34 -9 43.5 -11.5t14.5 -2.5q11 0 17 3.5t8.5 8.5t3 9.5t0.5 6.5h90q-3 -23 -7.5 -47.5t-14.5 -44.5t-28 -33.5t-48 -13.5 q-18 0 -39 4t-47 11q-23 6 -35.5 9t-19.5 4.5t-11 2t-9 0.5q-17 0 -20.5 -9.5t-3.5 -17.5h-89z" />
<glyph unicode="&#xe4;" horiz-adv-x="604" d="M37 362q3 16 7.5 34.5t14 36.5t26.5 35t45 32q44 23 94.5 29t91.5 6q61 0 103.5 -9.5t69.5 -25.5t42 -36t22 -41t8 -41.5t1 -35.5v-282q0 -13 0.5 -21.5t2.5 -15.5t5.5 -13t9.5 -14h-203v40q-10 -7 -24 -16t-34.5 -17t-48.5 -13.5t-64 -5.5q-49 0 -84 13.5t-58 37 t-34 53.5t-11 63q0 23 8 53t36 58q18 18 37.5 29t43 18.5t51.5 11.5t62 9q21 3 36.5 5.5t28 5t23 5.5t22.5 6q0 13 -3 24t-10.5 18.5t-21 12t-35.5 4.5q-35 0 -48.5 -10.5t-18.5 -37.5zM366 241l-30 -10t-31 -10l-26 -6t-27 -8q-15 -6 -23.5 -13t-12.5 -13.5t-5 -12t-1 -7.5 q0 -11 11 -25.5t40 -14.5q11 0 24.5 3.5t27 11t25 18.5t18.5 26q8 17 9 32t1 29zM115 724h166v-119h-166v119zM360 724h165v-119h-165v119z" />
<glyph unicode="&#xe5;" horiz-adv-x="604" d="M37 362q3 16 7.5 34.5t14 36.5t26.5 35t45 32q44 23 94.5 29t91.5 6q61 0 103.5 -9.5t69.5 -25.5t42 -36t22 -41t8 -41.5t1 -35.5v-282q0 -13 0.5 -21.5t2.5 -15.5t5.5 -13t9.5 -14h-203v40q-10 -7 -24 -16t-34.5 -17t-48.5 -13.5t-64 -5.5q-49 0 -84 13.5t-58 37 t-34 53.5t-11 63q0 23 8 53t36 58q18 18 37.5 29t43 18.5t51.5 11.5t62 9q21 3 36.5 5.5t28 5t23 5.5t22.5 6q0 13 -3 24t-10.5 18.5t-21 12t-35.5 4.5q-35 0 -48.5 -10.5t-18.5 -37.5zM366 241l-30 -10t-31 -10l-26 -6t-27 -8q-15 -6 -23.5 -13t-12.5 -13.5t-5 -12t-1 -7.5 q0 -11 11 -25.5t40 -14.5q11 0 24.5 3.5t27 11t25 18.5t18.5 26q8 17 9 32t1 29zM210 691q0 23 9 43t24 35t35 24t43 9t43 -9t35 -24t24 -35t9 -43t-9 -43t-24 -35t-35 -24t-43 -9t-43 9t-35 24t-24 35t-9 43zM285 691q0 -15 10.5 -25.5t25.5 -10.5t25.5 10.5t10.5 25.5 t-10.5 25.5t-25.5 10.5t-25.5 -10.5t-10.5 -25.5z" />
<glyph unicode="&#xe6;" horiz-adv-x="938" d="M36 359q1 11 3 23t7 25.5t13.5 28t22.5 29.5q27 29 80 51t135 22q25 0 54.5 -2.5t64.5 -10.5q29 -7 43 -14t29 -16q12 7 27 15t33.5 14.5t42.5 10.5t55 4q49 0 100 -16t96 -60q30 -29 46 -60.5t23.5 -62.5t8.5 -61t1 -56h-360q0 -11 0.5 -20t2.5 -18q8 -34 33 -47.5 t51 -13.5q24 0 40.5 8t28 19t18 23t10.5 20l168 -71q-11 -15 -20 -28.5t-26 -29.5q-38 -37 -91.5 -61.5t-131.5 -24.5q-40 0 -70.5 6.5t-53.5 16t-39.5 20t-28.5 19.5q-16 -9 -37.5 -19.5t-49.5 -20t-62 -16t-75 -6.5q-29 0 -51 3.5t-40 8.5q-44 14 -68 37.5t-35.5 47.5 t-14 44.5t-2.5 29.5q0 21 5.5 42.5t17 41.5t29.5 37t44 28q22 10 55 16t94 14q26 4 55.5 9t49.5 10q0 11 -1 23t-7.5 22t-20.5 16.5t-38 6.5q-21 0 -34 -4t-20.5 -11.5t-11 -17t-4.5 -21.5zM711 330q0 6 -0.5 12t-1.5 12q-7 31 -28.5 41t-40.5 10q-24 0 -38.5 -9 t-22.5 -21.5t-11 -25t-4 -19.5h147zM373 236q-12 -4 -21 -6.5t-18.5 -5t-23.5 -6t-36 -8.5q-26 -6 -46 -16t-20 -34q0 -5 2 -12.5t8 -14t16 -11t26 -4.5q23 0 44 10t34 23q21 20 26.5 41t8.5 44z" />
<glyph unicode="&#xe7;" horiz-adv-x="562" d="M560 138q-7 -15 -21.5 -39t-40.5 -48.5t-67 -44t-102 -25.5l-20 -40q6 1 12.5 1.5t13.5 0.5q42 0 63 -22.5t21 -50.5q0 -13 -5 -27t-18 -27t-27 -20t-28.5 -10t-27.5 -3.5t-24 -0.5q-26 0 -43 2t-34 5l3 55q6 -2 10 -3t12 -1q23 0 33 7t10 15q0 2 -3 9t-22 7 q-17 0 -38 -6l3 36l49 72q-67 5 -114.5 30.5t-78 64.5t-44.5 87.5t-14 99.5q0 63 20.5 114t53.5 86q27 28 58.5 44t61 23.5t54.5 9.5t40 2q14 0 38 -1.5t53.5 -9.5t61 -24t60.5 -46q15 -15 23.5 -27t17.5 -27l-157 -89q-11 36 -31 57.5t-56 21.5q-24 0 -41.5 -11t-29 -30 t-17.5 -44.5t-6 -54.5q0 -12 2 -32t10.5 -39.5t26 -33.5t49.5 -14q24 0 40.5 10t27 24t16.5 28.5t9 24.5z" />
<glyph unicode="&#xe8;" horiz-adv-x="604" d="M578 121q-46 -70 -113.5 -106t-161.5 -36q-72 0 -125.5 24t-89.5 63t-53.5 90t-17.5 105q0 63 21 114.5t58.5 88t90 56t115.5 19.5q48 0 104 -15.5t104 -61.5q28 -28 44 -58t23.5 -60.5t9 -61t2.5 -60.5h-362q1 -17 4.5 -36.5t20.5 -36.5q4 -4 18.5 -14t43.5 -10 q35 0 56.5 17.5t37.5 49.5zM379 331q-1 6 -1 12t-2 12q-7 28 -27.5 40.5t-41.5 12.5q-23 0 -37.5 -9t-23 -21t-12 -25t-5.5 -22h150zM330 724l76 -137h-127l-162 137h213z" />
<glyph unicode="&#xe9;" horiz-adv-x="604" d="M578 121q-46 -70 -113.5 -106t-161.5 -36q-72 0 -125.5 24t-89.5 63t-53.5 90t-17.5 105q0 63 21 114.5t58.5 88t90 56t115.5 19.5q48 0 104 -15.5t104 -61.5q28 -28 44 -58t23.5 -60.5t9 -61t2.5 -60.5h-362q1 -17 4.5 -36.5t20.5 -36.5q4 -4 18.5 -14t43.5 -10 q35 0 56.5 17.5t37.5 49.5zM379 331q-1 6 -1 12t-2 12q-7 28 -27.5 40.5t-41.5 12.5q-23 0 -37.5 -9t-23 -21t-12 -25t-5.5 -22h150zM282 724h212l-161 -137h-128z" />
<glyph unicode="&#xea;" horiz-adv-x="604" d="M578 121q-46 -70 -113.5 -106t-161.5 -36q-72 0 -125.5 24t-89.5 63t-53.5 90t-17.5 105q0 63 21 114.5t58.5 88t90 56t115.5 19.5q48 0 104 -15.5t104 -61.5q28 -28 44 -58t23.5 -60.5t9 -61t2.5 -60.5h-362q1 -17 4.5 -36.5t20.5 -36.5q4 -4 18.5 -14t43.5 -10 q35 0 56.5 17.5t37.5 49.5zM379 331q-1 6 -1 12t-2 12q-7 28 -27.5 40.5t-41.5 12.5q-23 0 -37.5 -9t-23 -21t-12 -25t-5.5 -22h150zM228 724h156l104 -138h-143l-41 66l-40 -66h-142z" />
<glyph unicode="&#xeb;" horiz-adv-x="604" d="M578 121q-46 -70 -113.5 -106t-161.5 -36q-72 0 -125.5 24t-89.5 63t-53.5 90t-17.5 105q0 63 21 114.5t58.5 88t90 56t115.5 19.5q48 0 104 -15.5t104 -61.5q28 -28 44 -58t23.5 -60.5t9 -61t2.5 -60.5h-362q1 -17 4.5 -36.5t20.5 -36.5q4 -4 18.5 -14t43.5 -10 q35 0 56.5 17.5t37.5 49.5zM379 331q-1 6 -1 12t-2 12q-7 28 -27.5 40.5t-41.5 12.5q-23 0 -37.5 -9t-23 -21t-12 -25t-5.5 -22h150zM98 724h166v-119h-166v119zM343 724h165v-119h-165v119z" />
<glyph unicode="&#xec;" horiz-adv-x="292" d="M42 518h206v-518h-206v518zM174 724l76 -137h-127l-162 137h213z" />
<glyph unicode="&#xed;" horiz-adv-x="292" d="M42 518h206v-518h-206v518zM125 724h212l-161 -137h-128z" />
<glyph unicode="&#xee;" horiz-adv-x="292" d="M42 518h206v-518h-206v518zM72 724h156l104 -138h-143l-41 66l-40 -66h-142z" />
<glyph unicode="&#xef;" horiz-adv-x="292" d="M42 518h206v-518h-206v518zM-58 724h166v-119h-166v119zM187 724h165v-119h-165v119z" />
<glyph unicode="&#xf0;" d="M500 631q12 -16 33 -47t41.5 -74.5t35.5 -98t15 -118.5q0 -82 -25.5 -141t-69 -97.5t-100.5 -56.5t-120 -18q-71 0 -125 21.5t-91 59t-55.5 87.5t-18.5 107q0 70 24.5 123.5t63.5 89.5t87.5 54.5t95.5 18.5q31 0 54.5 -7.5t40.5 -18.5t28 -22.5t18 -19.5 q-11 23 -26.5 53.5t-45.5 72.5l-169 -38l-14 54l141 33q-8 9 -13 15t-9 10.5t-7.5 8.5t-9.5 10l143 32l38 -43l91 20l18 -55zM320 395q-29 -1 -47.5 -14t-29 -32.5t-14.5 -42.5t-4 -45q0 -19 3 -42.5t13.5 -44.5t29 -35.5t50.5 -14.5q27 0 45 10.5t29 29.5t16 44t5 55 q0 12 -2 34t-11 44t-28.5 38.5t-54.5 15.5z" />
<glyph unicode="&#xf1;" d="M236 449q6 9 17.5 23t31 27t49 22.5t72.5 9.5q31 0 54 -5.5t40 -13t28.5 -15.5t17.5 -14q18 -18 28.5 -39t16 -42t6.5 -40.5t1 -34.5v-327h-206v283q0 10 -1 23.5t-8 25.5t-21 20.5t-40 8.5q-27 0 -42.5 -9.5t-22.5 -22.5t-8.5 -28t-1.5 -25v-276h-206v518h195v-69z M135 588q3 21 7 45t14.5 45t29 35t49.5 14q15 0 38 -4t57 -14q34 -9 43.5 -11.5t14.5 -2.5q11 0 17 3.5t8.5 8.5t3 9.5t0.5 6.5h90q-3 -23 -7.5 -47.5t-14.5 -44.5t-28 -33.5t-48 -13.5q-18 0 -39 4t-47 11q-23 6 -35.5 9t-19.5 4.5t-11 2t-9 0.5q-17 0 -20.5 -9.5 t-3.5 -17.5h-89z" />
<glyph unicode="&#xf2;" d="M326 540q79 -1 133 -23.5t84 -51.5q37 -35 59 -90t22 -117q0 -61 -20.5 -112t-60.5 -88t-97.5 -57.5t-130.5 -20.5q-78 0 -134 23.5t-92 62t-52.5 88t-16.5 101.5q0 64 21 116.5t60.5 90t96 58t128.5 20.5zM320 395q-29 -1 -47.5 -14t-29 -32.5t-14.5 -42.5t-4 -45 q0 -19 3 -42.5t13.5 -44.5t29 -35.5t50.5 -14.5q27 0 45 10.5t29.5 29.5t16 44.5t4.5 54.5q0 12 -2 34.5t-11 44.5t-28.5 38t-54.5 15zM351 724l76 -137h-127l-162 137h213z" />
<glyph unicode="&#xf3;" d="M326 540q79 -1 133 -23.5t84 -51.5q37 -35 59 -90t22 -117q0 -61 -20.5 -112t-60.5 -88t-97.5 -57.5t-130.5 -20.5q-78 0 -134 23.5t-92 62t-52.5 88t-16.5 101.5q0 64 21 116.5t60.5 90t96 58t128.5 20.5zM320 395q-29 -1 -47.5 -14t-29 -32.5t-14.5 -42.5t-4 -45 q0 -19 3 -42.5t13.5 -44.5t29 -35.5t50.5 -14.5q27 0 45 10.5t29.5 29.5t16 44.5t4.5 54.5q0 12 -2 34.5t-11 44.5t-28.5 38t-54.5 15zM303 724h212l-161 -137h-128z" />
<glyph unicode="&#xf4;" d="M326 540q79 -1 133 -23.5t84 -51.5q37 -35 59 -90t22 -117q0 -61 -20.5 -112t-60.5 -88t-97.5 -57.5t-130.5 -20.5q-78 0 -134 23.5t-92 62t-52.5 88t-16.5 101.5q0 64 21 116.5t60.5 90t96 58t128.5 20.5zM320 395q-29 -1 -47.5 -14t-29 -32.5t-14.5 -42.5t-4 -45 q0 -19 3 -42.5t13.5 -44.5t29 -35.5t50.5 -14.5q27 0 45 10.5t29.5 29.5t16 44.5t4.5 54.5q0 12 -2 34.5t-11 44.5t-28.5 38t-54.5 15zM249 724h156l104 -138h-143l-41 66l-40 -66h-142z" />
<glyph unicode="&#xf5;" d="M326 540q79 -1 133 -23.5t84 -51.5q37 -35 59 -90t22 -117q0 -61 -20.5 -112t-60.5 -88t-97.5 -57.5t-130.5 -20.5q-78 0 -134 23.5t-92 62t-52.5 88t-16.5 101.5q0 64 21 116.5t60.5 90t96 58t128.5 20.5zM320 395q-29 -1 -47.5 -14t-29 -32.5t-14.5 -42.5t-4 -45 q0 -19 3 -42.5t13.5 -44.5t29 -35.5t50.5 -14.5q27 0 45 10.5t29.5 29.5t16 44.5t4.5 54.5q0 12 -2 34.5t-11 44.5t-28.5 38t-54.5 15zM135 588q3 21 7 45t14.5 45t29 35t49.5 14q15 0 38 -4t57 -14q34 -9 43.5 -11.5t14.5 -2.5q11 0 17 3.5t8.5 8.5t3 9.5t0.5 6.5h90 q-3 -23 -7.5 -47.5t-14.5 -44.5t-28 -33.5t-48 -13.5q-18 0 -39 4t-47 11q-23 6 -35.5 9t-19.5 4.5t-11 2t-9 0.5q-17 0 -20.5 -9.5t-3.5 -17.5h-89z" />
<glyph unicode="&#xf6;" d="M326 540q79 -1 133 -23.5t84 -51.5q37 -35 59 -90t22 -117q0 -61 -20.5 -112t-60.5 -88t-97.5 -57.5t-130.5 -20.5q-78 0 -134 23.5t-92 62t-52.5 88t-16.5 101.5q0 64 21 116.5t60.5 90t96 58t128.5 20.5zM320 395q-29 -1 -47.5 -14t-29 -32.5t-14.5 -42.5t-4 -45 q0 -19 3 -42.5t13.5 -44.5t29 -35.5t50.5 -14.5q27 0 45 10.5t29.5 29.5t16 44.5t4.5 54.5q0 12 -2 34.5t-11 44.5t-28.5 38t-54.5 15zM117 724h166v-119h-166v119zM362 724h165v-119h-165v119z" />
<glyph unicode="&#xf7;" horiz-adv-x="667" d="M667 227h-667v127h667v-127zM253 470q0 33 23.5 56.5t56.5 23.5t56.5 -23.5t23.5 -56.5t-23.5 -56.5t-56.5 -23.5t-56.5 23.5t-23.5 56.5zM253 111q0 33 23.5 56.5t56.5 23.5t56.5 -23.5t23.5 -56.5t-23.5 -56.5t-56.5 -23.5t-56.5 23.5t-23.5 56.5z" />
<glyph unicode="&#xf8;" d="M64 91q-18 32 -32 67t-14 94q0 67 21 121.5t60.5 92.5t95.5 58.5t125 20.5q77 0 145 -25q21 -8 33 -15t26 -18l56 48l44 -52l-53 -46q7 -11 16.5 -26.5t18 -37.5t14.5 -51t6 -65q0 -59 -20 -110.5t-59 -90t-98 -60.5t-137 -22q-42 0 -73.5 6t-54.5 15.5t-41 21.5t-33 23 l-62 -54l-44 53zM391 372q-5 7 -20 19t-49 12q-36 0 -56 -16t-30 -37.5t-12 -44.5t-2 -36q0 -11 0.5 -20.5t0.5 -20.5zM246 157q3 -6 8 -13t14 -13t22 -10.5t33 -4.5q30 0 49 14t30 35t15 45t4 44q0 14 -1 27l-2 26z" />
<glyph unicode="&#xf9;" d="M40 518h206v-282q0 -12 1.5 -26.5t8.5 -27t22 -21.5t42 -9t42 9.5t22.5 23.5t9 30t1.5 29v274h207v-518h-196v76q-5 -11 -10 -19t-16 -19q-29 -28 -67 -39.5t-78 -11.5q-31 0 -54.5 5.5t-41 13t-29 16.5t-18.5 16q-19 18 -29 39.5t-15 43t-6.5 43t-1.5 39.5v315zM351 724 l76 -137h-127l-162 137h213z" />
<glyph unicode="&#xfa;" d="M40 518h206v-282q0 -12 1.5 -26.5t8.5 -27t22 -21.5t42 -9t42 9.5t22.5 23.5t9 30t1.5 29v274h207v-518h-196v76q-5 -11 -10 -19t-16 -19q-29 -28 -67 -39.5t-78 -11.5q-31 0 -54.5 5.5t-41 13t-29 16.5t-18.5 16q-19 18 -29 39.5t-15 43t-6.5 43t-1.5 39.5v315zM303 724 h212l-161 -137h-128z" />
<glyph unicode="&#xfb;" d="M40 518h206v-282q0 -12 1.5 -26.5t8.5 -27t22 -21.5t42 -9t42 9.5t22.5 23.5t9 30t1.5 29v274h207v-518h-196v76q-5 -11 -10 -19t-16 -19q-29 -28 -67 -39.5t-78 -11.5q-31 0 -54.5 5.5t-41 13t-29 16.5t-18.5 16q-19 18 -29 39.5t-15 43t-6.5 43t-1.5 39.5v315zM249 724 h156l104 -138h-143l-41 66l-40 -66h-142z" />
<glyph unicode="&#xfc;" d="M40 518h206v-282q0 -12 1.5 -26.5t8.5 -27t22 -21.5t42 -9t42 9.5t22.5 23.5t9 30t1.5 29v274h207v-518h-196v76q-5 -11 -10 -19t-16 -19q-29 -28 -67 -39.5t-78 -11.5q-31 0 -54.5 5.5t-41 13t-29 16.5t-18.5 16q-19 18 -29 39.5t-15 43t-6.5 43t-1.5 39.5v315zM115 724 h166v-119h-166v119zM360 724h165v-119h-165v119z" />
<glyph unicode="&#xfd;" horiz-adv-x="583" d="M0 518h215l51 -223q4 -23 7 -38.5t5.5 -31.5t5 -34.5t6.5 -47.5q3 30 6 50t5.5 36.5t5.5 32.5t8 39l52 217h214l-189 -548q-11 -29 -23.5 -59t-37.5 -54q-17 -16 -32.5 -25t-32 -13t-36 -5t-43.5 -1q-17 0 -30.5 0.5t-26 1t-25 2t-27.5 3.5v147q13 -1 28.5 -2t29.5 -1 q21 0 32.5 5.5t11.5 19.5q0 3 -2 10t-4.5 15t-5.5 15.5t-4 12.5zM271 724h212l-161 -137h-128z" />
<glyph unicode="&#xfe;" horiz-adv-x="625" d="M242 478q6 7 16 16t26 17.5t39.5 14.5t56.5 6q62 0 105 -23.5t70 -62t39 -88.5t12 -102q0 -56 -13.5 -104.5t-41 -85.5t-70.5 -58t-103 -21q-32 0 -54 5t-38 12.5t-26 16t-16 14.5v-223h-203v894h201v-228zM325 382q-15 1 -29.5 -4.5t-24.5 -16.5q-11 -11 -17 -24 t-9 -27.5t-3.5 -28t-0.5 -24.5q0 -18 1.5 -36t7.5 -35q7 -20 18 -31t21.5 -16t19.5 -6t12 -1q15 0 29 6t24 16q13 13 21 36.5t8 62.5q0 16 -2 38t-9.5 42t-23.5 34t-43 15z" />
<glyph unicode="&#xff;" horiz-adv-x="583" d="M0 518h215l51 -223q4 -23 7 -38.5t5.5 -31.5t5 -34.5t6.5 -47.5q3 30 6 50t5.5 36.5t5.5 32.5t8 39l52 217h214l-189 -548q-11 -29 -23.5 -59t-37.5 -54q-17 -16 -32.5 -25t-32 -13t-36 -5t-43.5 -1q-17 0 -30.5 0.5t-26 1t-25 2t-27.5 3.5v147q13 -1 28.5 -2t29.5 -1 q21 0 32.5 5.5t11.5 19.5q0 3 -2 10t-4.5 15t-5.5 15.5t-4 12.5zM87 724h166v-119h-166v119zM332 724h165v-119h-165v119z" />
<glyph unicode="&#x131;" horiz-adv-x="292" d="M42 518h206v-518h-206v518z" />
<glyph unicode="&#x141;" horiz-adv-x="542" d="M267 449l193 116v-128l-193 -116v-143h273v-178h-496v187l-44 -27v129l44 26v392h223v-258z" />
<glyph unicode="&#x142;" horiz-adv-x="292" d="M248 498l44 29v-113l-44 -29v-385h-207v245l-41 -28v111l41 29v349h207v-208z" />
<glyph unicode="&#x152;" horiz-adv-x="1104" d="M519 25q-9 -6 -22 -13t-31 -13t-41.5 -10t-54.5 -4q-79 0 -141.5 28t-106.5 77.5t-67.5 116t-23.5 144.5q0 93 29.5 161.5t77.5 114.5t108.5 68.5t121.5 22.5q32 0 56.5 -4.5t42.5 -11t30.5 -13.5t21.5 -12v29h535v-154h-322v-105h300v-154h-300v-139h357v-154h-570v25z M519 511q-20 14 -43 24.5t-64 10.5q-9 0 -21.5 -1t-27 -4.5t-30 -11.5t-30.5 -23q-29 -30 -39.5 -71.5t-10.5 -83.5q0 -91 39 -142t108 -51q38 0 66.5 11.5t52.5 24.5v317z" />
<glyph unicode="&#x153;" horiz-adv-x="1000" d="M981 122q-11 -15 -23 -30.5t-27.5 -30t-36 -28t-48.5 -25.5q-30 -13 -66 -21t-77 -8q-34 0 -61.5 5.5t-50 14t-41 19t-34.5 19.5q-12 -8 -28.5 -18t-40 -18.5t-55 -14.5t-72.5 -6q-81 0 -138 25t-93.5 64.5t-53 89t-16.5 99.5q0 58 19.5 109.5t57.5 90t94.5 61 t130.5 22.5q54 0 106 -12.5t99 -40.5q11 7 27 16t38.5 17t50.5 14t63 6q58 0 112 -19t96 -60q27 -27 42 -56t22.5 -59.5t9.5 -61.5t3 -61h-364q1 -11 2 -21.5t5 -20.5q6 -19 17 -30.5t23 -17.5t23 -7.5t17 -1.5q22 0 38.5 7.5t28 18t19 22.5l12.5 20zM778 333q0 5 -0.5 10.5 t-1.5 11.5q-6 29 -27.5 41t-41.5 12q-33 0 -55 -22q-12 -13 -16 -26t-6 -27h148zM321 395q-36 -1 -55.5 -18.5t-28.5 -40t-10.5 -44t-1.5 -31.5q0 -18 2.5 -41t12 -43.5t28 -35t51.5 -14.5q31 0 50.5 14t30 35t14 46t3.5 47t-4 45t-14.5 41t-29 29.5t-48.5 10.5z" />
<glyph unicode="&#x160;" horiz-adv-x="729" d="M178 244q7 -12 15 -22.5t18.5 -20t26 -18.5t38.5 -16q46 -16 99 -16q7 0 24.5 1t35.5 6.5t32 16t14 29.5q0 2 -0.5 7t-4.5 12t-11.5 13.5t-22.5 11.5q-9 3 -35 8.5t-55.5 11.5t-56 11t-37.5 8q-24 6 -57 18t-63 35.5t-51 60t-21 92.5q0 48 20 91q17 39 47 66.5t68.5 45 t83.5 25.5t93 8q61 0 115 -11.5t98 -33.5q40 -20 62.5 -40t41.5 -40l-140 -117q-8 11 -19.5 22.5t-34.5 23.5q-31 15 -67.5 20.5t-63.5 5.5q-14 0 -28.5 -2t-26 -7.5t-18.5 -14.5t-7 -22q0 -26 25.5 -36t71.5 -18q59 -10 115 -22.5t100 -37t71 -64.5t27 -106 q0 -56 -19.5 -95t-43.5 -64q-33 -34 -74 -52.5t-79.5 -27t-70 -10t-46.5 -1.5q-40 0 -81 4.5t-83 16.5t-73.5 29t-54.5 35.5t-39.5 36.5t-28.5 33zM445 751h-161l-96 123h144l34 -52l31 52h141z" />
<glyph unicode="&#x161;" horiz-adv-x="542" d="M115 189q14 -14 31 -27t47 -26q28 -11 48.5 -14t33.5 -3q19 0 36.5 7.5t17.5 24.5q0 19 -18 25.5t-34 8.5q-14 2 -43.5 7.5t-64.5 16.5q-18 5 -42.5 14t-47 26t-38 44t-15.5 68q0 35 14.5 65t37.5 53q23 22 49.5 34t52 18t47 7t34.5 1q56 0 117 -14q27 -6 46.5 -13.5 t34.5 -15t26.5 -16t22.5 -16.5l-111 -101q-26 17 -58.5 33t-74.5 16q-3 0 -10.5 -0.5t-15 -3t-13 -8t-5.5 -15.5q0 -7 3.5 -11.5t12.5 -8.5t25 -8.5t42 -10.5q34 -8 57 -13t38 -9.5t25 -8t19 -8.5q39 -21 60 -55.5t21 -79.5q0 -38 -16 -73t-47 -61.5t-77 -42t-106 -15.5 q-56 0 -100 11t-77.5 27.5t-58.5 34t-41 31.5zM348 586h-156l-103 138h142l41 -66l40 66h142z" />
<glyph unicode="&#x178;" horiz-adv-x="792" d="M255 706l138 -235l136 235h259l-285 -409v-297h-223v297l-283 409h258zM201 876h166v-118h-166v118zM430 876h166v-118h-166v118z" />
<glyph unicode="&#x17d;" horiz-adv-x="667" d="M23 706h631v-144l-356 -390h355v-172h-651v141l362 396h-341v169zM413 751h-161l-96 123h144l34 -52l31 52h141z" />
<glyph unicode="&#x17e;" horiz-adv-x="542" d="M39 518h490v-118l-241 -245h239v-155h-519v114l246 250h-215v154zM348 586h-156l-103 138h142l41 -66l40 66h142z" />
<glyph unicode="&#x192;" horiz-adv-x="437" d="M130 540q5 30 13.5 58t36.5 53q32 29 74 39t85 10q34 0 57.5 -4t49.5 -9l-16 -141q-8 3 -16 5t-21 2q-21 0 -33 -6t-18.5 -15.5t-8.5 -21t-3 -21.5h93l-13 -112h-93l-33 -307q-6 -53 -9.5 -82.5t-6.5 -46t-6 -24.5t-7 -18q-12 -26 -32.5 -44t-46 -29t-54.5 -16t-59 -5 q-34 0 -57 4t-50 9l16 141q8 -3 16 -5t21 -2q21 0 33 6t18 15.5t8.5 20.5t3.5 22l40 361h-77l12 112h77z" />
<glyph unicode="&#x2c6;" horiz-adv-x="313" d="M80 724h156l104 -138h-143l-41 66l-40 -66h-142z" />
<glyph unicode="&#x2c7;" horiz-adv-x="313" d="M233 586h-156l-103 138h142l41 -66l40 66h142z" />
<glyph unicode="&#x2d8;" horiz-adv-x="313" d="M314 725q-2 -14 -8.5 -39t-23.5 -50t-47 -43.5t-80 -18.5q-21 0 -43 4.5t-42 16.5q-24 14 -37.5 32t-20.5 36.5t-9 34.5t-3 27h114v-15t4 -17.5t12 -14.5t24 -6t24.5 7t12 16t3.5 18v12h120z" />
<glyph unicode="&#x2d9;" horiz-adv-x="313" d="M73 724h166v-119h-166v119z" />
<glyph unicode="&#x2da;" horiz-adv-x="313" d="M45 691q0 23 9 43t24 35t35 24t43 9t43 -9t35 -24t24 -35t9 -43t-9 -43t-24 -35t-35 -24t-43 -9t-43 9t-35 24t-24 35t-9 43zM120 691q0 -15 10.5 -25.5t25.5 -10.5t25.5 10.5t10.5 25.5t-10.5 25.5t-25.5 10.5t-25.5 -10.5t-10.5 -25.5z" />
<glyph unicode="&#x2db;" horiz-adv-x="313" d="M212 0q-19 -15 -37.5 -35t-18.5 -49t18 -42t39 -13q11 0 20 3t20 8l4 -47q-23 -11 -46 -15.5t-49 -4.5q-29 0 -49 8t-33 20.5t-18.5 27.5t-5.5 29q0 24 10.5 41.5t26 30.5t33 22t31.5 16h55z" />
<glyph unicode="&#x2dc;" horiz-adv-x="313" d="M-29 588q3 21 7 45t14.5 45t29 35t49.5 14q15 0 38 -4t57 -14q34 -9 43.5 -11.5t14.5 -2.5q11 0 17 3.5t8.5 8.5t3 9.5t0.5 6.5h90q-3 -23 -7.5 -47.5t-14.5 -44.5t-28 -33.5t-48 -13.5q-18 0 -39 4t-47 11q-23 6 -35.5 9t-19.5 4.5t-11 2t-9 0.5q-17 0 -20.5 -9.5 t-3.5 -17.5h-89z" />
<glyph unicode="&#x2dd;" horiz-adv-x="313" d="M-32 724h213l-162 -137h-127zM209 724h213l-162 -137h-127z" />
<glyph unicode="&#x2000;" horiz-adv-x="465" />
<glyph unicode="&#x2001;" horiz-adv-x="931" />
<glyph unicode="&#x2002;" horiz-adv-x="465" />
<glyph unicode="&#x2003;" horiz-adv-x="931" />
<glyph unicode="&#x2004;" horiz-adv-x="310" />
<glyph unicode="&#x2005;" horiz-adv-x="232" />
<glyph unicode="&#x2006;" horiz-adv-x="155" />
<glyph unicode="&#x2007;" horiz-adv-x="155" />
<glyph unicode="&#x2008;" horiz-adv-x="116" />
<glyph unicode="&#x2009;" horiz-adv-x="186" />
<glyph unicode="&#x200a;" horiz-adv-x="51" />
<glyph unicode="&#x2010;" horiz-adv-x="333" d="M38 402h256v-171h-256v171z" />
<glyph unicode="&#x2011;" horiz-adv-x="333" d="M38 402h256v-171h-256v171z" />
<glyph unicode="&#x2012;" horiz-adv-x="333" d="M38 402h256v-171h-256v171z" />
<glyph unicode="&#x2013;" d="M38 402h569v-171h-569v171z" />
<glyph unicode="&#x2014;" horiz-adv-x="688" d="M38 402h611v-171h-611v171z" />
<glyph unicode="&#x2018;" horiz-adv-x="250" d="M216 343h-182v144q0 22 1.5 43.5t6 42.5t15 41.5t28.5 38.5q30 30 63 40t68 16v-89q-23 -7 -35 -17.5t-18 -22.5t-7.5 -24.5t-1.5 -24.5h62v-188z" />
<glyph unicode="&#x2019;" horiz-adv-x="250" d="M34 706h182v-144q0 -22 -1.5 -43.5t-6 -42.5t-15 -41t-28.5 -39q-30 -30 -63 -40t-68 -15v88q22 7 34.5 17.5t18.5 22.5t7.5 24.5t1.5 24.5h-62v188z" />
<glyph unicode="&#x201a;" horiz-adv-x="250" d="M34 188h182v-144q0 -22 -1.5 -43.5t-6 -42.5t-15 -41t-28.5 -39q-30 -30 -63 -39.5t-68 -15.5v88q22 7 34.5 17.5t18.5 22.5t7.5 24.5t1.5 24.5h-62v188z" />
<glyph unicode="&#x201c;" horiz-adv-x="521" d="M224 343h-183v144q0 22 1.5 43.5t6.5 42.5t15 41.5t29 38.5q29 30 62.5 40t68.5 16v-89q-23 -7 -35 -17.5t-18 -22.5t-7.5 -24.5t-1.5 -24.5h62v-188zM478 343h-182v144q0 22 1.5 43.5t6 42.5t15 41.5t28.5 38.5q30 30 63 40t68 16v-89q-23 -7 -35 -17.5t-18 -22.5 t-7.5 -24.5t-1.5 -24.5h62v-188z" />
<glyph unicode="&#x201d;" horiz-adv-x="521" d="M296 706h182v-144q0 -22 -1.5 -43.5t-6 -42.5t-15 -41t-28.5 -39q-30 -30 -63 -40t-68 -15v88q22 7 34.5 17.5t18.5 22.5t7.5 24.5t1.5 24.5h-62v188zM41 706h183v-144q0 -22 -1.5 -43.5t-6.5 -42.5t-15.5 -41t-28.5 -39q-29 -30 -62.5 -40t-68.5 -15v88q22 7 34.5 17.5 t18.5 22.5t7.5 24.5t1.5 24.5h-62v188z" />
<glyph unicode="&#x201e;" horiz-adv-x="521" d="M296 188h182v-144q0 -21 -1.5 -43t-6 -43t-15 -41t-28.5 -39q-30 -30 -63 -39.5t-68 -15.5v88q22 7 34.5 17.5t18.5 22.5t7.5 24.5t1.5 24.5h-62v188zM41 188h183v-144q0 -21 -1.5 -43t-6.5 -43t-15.5 -41t-28.5 -39q-29 -30 -62.5 -39.5t-68.5 -15.5v88q22 7 34.5 17.5 t18.5 22.5t7.5 24.5t1.5 24.5h-62v188z" />
<glyph unicode="&#x2020;" horiz-adv-x="625" d="M409 706v-213h178v-158h-178v-488h-194v488h-177v158h177v213h194z" />
<glyph unicode="&#x2021;" d="M414 706v-162h182v-153h-182v-196h182v-153h-182v-193h-182v193h-183v153h183v196h-183v153h183v162h182z" />
<glyph unicode="&#x2022;" horiz-adv-x="333" d="M12 352q0 32 12 60.5t33 49.5t49.5 33t60.5 12t60.5 -12t49.5 -33t33 -49.5t12 -60.5t-12 -60.5t-33 -49.5t-49.5 -33t-60.5 -12t-60.5 12t-49.5 33t-33 49.5t-12 60.5z" />
<glyph unicode="&#x2026;" horiz-adv-x="1000" d="M258 188v-188h-182v188h182zM591 188v-188h-182v188h182zM924 188v-188h-182v188h182z" />
<glyph unicode="&#x202f;" horiz-adv-x="186" />
<glyph unicode="&#x2030;" horiz-adv-x="1438" d="M783 450q20 0 39.5 -2t37.5 -9q22 -9 43.5 -26t37.5 -43.5t26 -62.5t10 -81q0 -46 -11.5 -88.5t-36 -75.5t-62.5 -52.5t-91 -19.5q-49 0 -85.5 17t-61 47t-36.5 71.5t-12 90.5q0 50 14.5 97.5t48.5 82.5q18 18 36 29t35.5 16.5t34.5 7t33 1.5zM782 355q-23 0 -35.5 -14.5 t-18.5 -35.5t-7 -44.5t-1 -40.5q0 -24 1 -47.5t6.5 -42t17.5 -30t33 -11.5q35 0 47.5 34.5t12.5 100.5q0 60 -10.5 95t-45.5 36zM1220 450q20 0 40 -2t38 -9q22 -9 43.5 -26t37.5 -43.5t26 -62.5t10 -81q0 -46 -11.5 -88.5t-36 -75.5t-63 -52.5t-91.5 -19.5q-49 0 -85.5 17 t-61 47t-36.5 71.5t-12 90.5q0 50 14.5 97.5t48.5 82.5q18 18 36 29t35.5 16.5t34.5 7t33 1.5zM1219 355q-23 0 -35.5 -14.5t-18.5 -35.5t-7 -44.5t-1 -40.5q0 -24 1 -47.5t6.5 -42t17.5 -30t34 -11.5q35 0 47.5 34.5t12.5 100.5q0 60 -11 95t-46 36zM607 706h92l-302 -706 h-92zM222 694q20 0 39.5 -2t37.5 -9q22 -9 43.5 -26t37.5 -43.5t26 -62.5t10 -81q0 -46 -11.5 -88.5t-36.5 -75.5t-63 -52.5t-90 -19.5q-48 0 -84.5 17t-61 47t-37 71.5t-12.5 90.5q0 50 14.5 97.5t48.5 82.5q18 18 36 29t35.5 16.5t34.5 7t33 1.5zM221 599 q-23 0 -35.5 -14.5t-18.5 -35.5t-7 -44.5t-1 -40.5q0 -24 1 -47.5t6.5 -42t17.5 -30t33 -11.5q35 0 47.5 34.5t12.5 100.5q0 60 -10.5 95t-45.5 36z" />
<glyph unicode="&#x2039;" horiz-adv-x="229" d="M192 100l-157 125v183l157 125v-149l-89 -69l89 -67v-148z" />
<glyph unicode="&#x203a;" horiz-adv-x="229" d="M35 533l157 -125v-183l-157 -125v149l89 69l-89 67v148z" />
<glyph unicode="&#x2044;" horiz-adv-x="125" d="M237 735l69 -35l-362 -734l-68 34z" />
<glyph unicode="&#x205f;" horiz-adv-x="232" />
<glyph unicode="&#x2122;" horiz-adv-x="688" d="M674 374h-82l4 177l5 67l-13 -53l-57 -191h-74l-59 192l-14 51l6 -66l5 -177h-81v332h106l76 -240l71 240h107v-332zM186 374h-84v265h-102v67h287v-67h-101v-265z" />
<glyph unicode="&#x2212;" horiz-adv-x="667" d="M667 227h-667v127h667v-127z" />
<glyph unicode="&#x25fc;" horiz-adv-x="520" d="M0 520h520v-520h-520v520z" />
<glyph unicode="&#xfb01;" horiz-adv-x="667" d="M76 558q1 29 6.5 57t31.5 54q6 6 17 14.5t29 16t44.5 13t62.5 5.5q34 0 57.5 -4t50.5 -9v-141q-8 3 -16 5t-22 2q-21 0 -32 -6.5t-16.5 -16t-6 -21t-0.5 -21.5h93v-112h-93v-394h-206v394h-77v112h77v52zM417 707h206v-138h-206v138zM417 518h206v-518h-206v518z" />
<glyph unicode="&#xfb02;" horiz-adv-x="667" d="M76 557q1 29 6.5 57.5t31.5 54.5q6 6 17 14t29 15.5t44.5 13t62.5 5.5q34 0 57.5 -4t50.5 -9v-141q-9 3 -16.5 5t-21.5 2q-21 0 -32 -6t-16.5 -15.5t-6 -21t-0.5 -21.5h93v-112h-93v-394h-206v394h-77v112h77v51zM416 706h207v-706h-207v706z" />
</font>
</defs>
</svg>
